<?xml version="1.0" encoding="utf-8"?>
<!-- Generator: Adobe Illustrator 22.0.1, SVG Export Plug-In . SVG Version: 6.00 Build 0)  -->
<svg version="1.1" id="Layer_1" xmlns="http://www.w3.org/2000/svg" xmlns:xlink="http://www.w3.org/1999/xlink" x="0px" y="0px"
	 viewBox="0 0 1200 600" style="enable-background:new 0 0 1200 600;" xml:space="preserve">
<style type="text/css">
	.st0{enable-background:new    ;}
	.st1{clip-path:url(#SVGID_2_);enable-background:new    ;}
	.st2{fill:#893B2E;}
	.st3{fill:#8D3D30;}
	.st4{fill:#923F31;}
	.st5{fill:#964133;}
	.st6{fill:#9B4334;}
	.st7{fill:#84392D;}
	.st8{clip-path:url(#SVGID_4_);enable-background:new    ;}
	.st9{fill:#80372B;}
	.st10{fill:#7B352A;}
	.st11{fill:#773328;}
	.st12{clip-path:url(#SVGID_6_);enable-background:new    ;}
	.st13{fill:#4D747B;}
	.st14{fill:#4A7178;}
	.st15{fill:#486D74;}
	.st16{fill:#466A70;}
	.st17{clip-path:url(#SVGID_8_);enable-background:new    ;}
	.st18{clip-path:url(#SVGID_10_);enable-background:new    ;}
	.st19{fill:#3C5C61;}
	.st20{fill:#3F5F65;}
	.st21{fill:#416369;}
	.st22{fill:#43666C;}
	.st23{clip-path:url(#SVGID_12_);enable-background:new    ;}
	.st24{fill:#4F787F;}
	.st25{fill:#62959F;}
	.st26{clip-path:url(#SVGID_14_);enable-background:new    ;}
	.st27{fill:#C25441;}
	.st28{fill:#E4634D;stroke:#EFB9B1;stroke-width:2;stroke-miterlimit:10;}
</style>
<g>
	<g>
		<g class="st0">
			<g class="st0">
				<defs>
					<path id="SVGID_1_" class="st0" d="M95.6,366.2l-0.7-5.2c13.6,97,242.9,145.3,511.1,107.6l0.7,5.2
						C338.6,511.6,109.3,463.3,95.6,366.2z"/>
				</defs>
				<clipPath id="SVGID_2_">
					<use xlink:href="#SVGID_1_"  style="overflow:visible;"/>
				</clipPath>
				<g class="st1">
					<path class="st2" d="M95.6,366.2l-0.7-5.2c0.1,0.8,0.2,1.5,0.4,2.3l0.7,5.2C95.9,367.8,95.7,367,95.6,366.2"/>
					<path class="st3" d="M96,368.5l-0.7-5.2c0.5,3,1.3,5.9,2.2,8.8l0.7,5.2C97.3,374.4,96.5,371.5,96,368.5"/>
					<path class="st4" d="M98.2,377.3l-0.7-5.2c1.2,3.8,2.8,7.4,4.6,11l0.7,5.2C101,384.7,99.4,381.1,98.2,377.3"/>
					<path class="st5" d="M102.8,388.3l-0.7-5.2c4.8,9.2,11.8,17.8,20.7,25.9l0.7,5.2C114.6,406.2,107.6,397.5,102.8,388.3"/>
					<path class="st6" d="M123.5,414.2l-0.7-5.2c2,1.8,4,3.5,6.2,5.2l0.7,5.2C127.6,417.7,125.5,416,123.5,414.2"/>
					<path class="st5" d="M129.7,419.5l-0.7-5.2c15.1,12,34.7,22.6,58.2,31.6l0.7,5.2C164.4,442.1,144.8,431.5,129.7,419.5"/>
					<path class="st4" d="M187.9,451.1l-0.7-5.2c20,7.7,42.9,14.2,68.1,19.5l0.7,5.2C230.8,465.3,207.9,458.8,187.9,451.1"/>
					<path class="st3" d="M255.9,470.6l-0.7-5.2c29.8,6.3,62.9,10.8,98.6,13.4l0.7,5.2C318.9,481.4,285.8,476.9,255.9,470.6"/>
					<path class="st2" d="M354.6,484l-0.7-5.2c42.2,3.1,88,3.5,136.2,1.1l0.7,5.2C442.6,487.6,396.8,487.1,354.6,484"/>
					<path class="st7" d="M490.7,485.1l-0.7-5.2c37.4-1.9,76.3-5.6,116-11.2l0.7,5.2C567,479.5,528.2,483.2,490.7,485.1"/>
				</g>
			</g>
			<g class="st0">
				<defs>
					<path id="SVGID_3_" class="st0" d="M606.8,473.9l-0.7-5.2c268.2-37.7,475.3-147.3,461.7-244.4l0.7,5.2
						C1082.1,326.6,875,436.2,606.8,473.9z"/>
				</defs>
				<clipPath id="SVGID_4_">
					<use xlink:href="#SVGID_3_"  style="overflow:visible;"/>
				</clipPath>
				<g class="st8">
					<path class="st7" d="M606.8,473.9l-0.7-5.2c16.8-2.4,33.4-5,49.8-7.9l0.7,5.2C640.2,468.9,623.6,471.5,606.8,473.9"/>
					<path class="st9" d="M656.5,465.9l-0.7-5.2c56.1-10,108.9-23.1,156.8-38.5l0.7,5.2C765.5,442.8,712.7,455.9,656.5,465.9"/>
					<path class="st10" d="M813.4,427.4l-0.7-5.2c45.6-14.6,86.7-31.3,122-49.3l0.7,5.2C900.1,396.1,859,412.8,813.4,427.4"/>
					<path class="st11" d="M935.3,378.1l-0.7-5.2c88.5-45.1,140.1-98.5,133.1-148.6l0.7,5.2C1075.5,279.6,1023.8,332.9,935.3,378.1"
						/>
				</g>
			</g>
			<g class="st0">
				<defs>
					<path id="SVGID_5_" class="st0" d="M1058.2,198.2c5,8.3,8.2,17,9.5,26.1l0.7,5.2c-1.3-9.2-4.5-17.9-9.5-26.1
						C1058.7,201.7,1058.5,199.9,1058.2,198.2z"/>
				</defs>
				<clipPath id="SVGID_6_">
					<use xlink:href="#SVGID_5_"  style="overflow:visible;"/>
				</clipPath>
				<g class="st12">
					<path class="st13" d="M1040.5,181.5l-0.7-5.2c8.9,8.1,15.9,16.7,20.7,25.9l0.7,5.2C1056.4,198.2,1049.5,189.6,1040.5,181.5"/>
					<path class="st14" d="M1061.2,207.4l-0.7-5.2c1.9,3.6,3.4,7.3,4.6,11l0.7,5.2C1064.7,214.7,1063.1,211,1061.2,207.4"/>
					<path class="st15" d="M1065.9,218.5l-0.7-5.2c0.9,2.9,1.7,5.8,2.2,8.8l0.7,5.2C1067.6,224.3,1066.8,221.3,1065.9,218.5"/>
					<path class="st16" d="M1068.1,227.2l-0.7-5.2c0.1,0.8,0.3,1.5,0.4,2.3l0.7,5.2C1068.3,228.8,1068.2,228,1068.1,227.2"/>
				</g>
			</g>
			<g class="st0">
				<defs>
					<path id="SVGID_7_" class="st0" d="M909.7,122.4l-0.7-5.2c97.5,20.7,155,58.6,161.7,106.7l0.7,5.2
						C1064.6,181,1007.2,143.2,909.7,122.4z"/>
				</defs>
				<clipPath id="SVGID_8_">
					<use xlink:href="#SVGID_7_"  style="overflow:visible;"/>
				</clipPath>
				<g class="st17">
					<path class="st4" d="M909.7,122.4l-0.7-5.2c25.4,5.4,48,11.9,67.8,19.5l0.7,5.2C957.7,134.4,935.1,127.8,909.7,122.4"/>
					<path class="st5" d="M977.5,142l-0.7-5.2c23.9,9.2,43.5,19.8,58.6,31.8l0.7,5.2C1021,161.8,1001.3,151.1,977.5,142"/>
					<path class="st6" d="M1036.1,173.8l-0.7-5.2c4.3,3.4,8.2,6.9,11.7,10.5l0.7,5.2C1044.2,180.7,1040.3,177.2,1036.1,173.8"/>
					<path class="st5" d="M1047.7,184.3l-0.7-5.2c7,7.2,12.6,14.7,16.6,22.6l0.7,5.2C1060.3,199,1054.8,191.4,1047.7,184.3"/>
					<path class="st4" d="M1064.3,206.9l-0.7-5.2c1.8,3.6,3.3,7.2,4.5,10.9l0.7,5.2C1067.6,214.1,1066.1,210.4,1064.3,206.9"/>
					<path class="st3" d="M1068.8,217.7l-0.7-5.2c1,3,1.7,6,2.2,9.1l0.7,5.2C1070.5,223.8,1069.8,220.7,1068.8,217.7"/>
					<path class="st2" d="M1071.1,226.9l-0.7-5.2c0.1,0.7,0.2,1.5,0.4,2.2l0.7,5.2C1071.3,228.4,1071.2,227.6,1071.1,226.9"/>
				</g>
			</g>
			<g class="st0">
				<defs>
					<path id="SVGID_9_" class="st0" d="M94.9,361.1c-13.6-97,193.5-206.7,461.7-244.4l0.7,5.2C289.1,159.6,82,269.2,95.6,366.2
						C95.4,364.7,95.1,362.6,94.9,361.1z"/>
				</defs>
				<clipPath id="SVGID_10_">
					<use xlink:href="#SVGID_9_"  style="overflow:visible;"/>
				</clipPath>
				<g class="st18">
					<path class="st19" d="M95.6,366.2l-0.7-5.2c-7-50,44.6-103.4,133.1-148.6l0.7,5.2C140.3,262.8,88.6,316.2,95.6,366.2"/>
					<path class="st20" d="M228.7,217.7l-0.7-5.2c35.3-18,76.4-34.7,122-49.3l0.7,5.2C305.1,183,264,199.7,228.7,217.7"/>
					<path class="st21" d="M350.7,168.3l-0.7-5.2c47.9-15.4,100.7-28.5,156.8-38.5l0.7,5.2C451.4,139.8,398.6,153,350.7,168.3"/>
					<path class="st22" d="M507.5,129.8l-0.7-5.2c16.3-2.9,32.9-5.6,49.8-7.9l0.7,5.2C540.5,124.3,523.9,126.9,507.5,129.8"/>
				</g>
			</g>
			<g class="st0">
				<defs>
					<path id="SVGID_11_" class="st0" d="M556.6,116.7c242.9-34.1,453.9,2.2,501.7,81.5c0.2,1.7,0.5,3.5,0.7,5.2
						c-47.8-79.2-258.8-115.6-501.7-81.5C557.1,120.3,556.8,118.3,556.6,116.7z"/>
				</defs>
				<clipPath id="SVGID_12_">
					<use xlink:href="#SVGID_11_"  style="overflow:visible;"/>
				</clipPath>
				<g class="st23">
					<path class="st22" d="M557.3,121.9l-0.7-5.2c39.7-5.6,78.6-9.3,116-11.2l0.7,5.2C635.9,112.6,597,116.3,557.3,121.9"/>
					<path class="st16" d="M673.3,110.7l-0.7-5.2c48.2-2.5,94-2,136.2,1.1l0.7,5.2C767.3,108.6,721.5,108.2,673.3,110.7"/>
					<path class="st15" d="M809.5,111.7l-0.7-5.2c35.7,2.6,68.8,7.1,98.6,13.4l0.7,5.2C878.3,118.9,845.2,114.3,809.5,111.7"/>
					<path class="st14" d="M908.1,125.1l-0.7-5.2c25.2,5.3,48,11.8,68.1,19.5l0.7,5.2C956.2,137,933.3,130.4,908.1,125.1"/>
					<path class="st13" d="M976.2,144.7l-0.7-5.2c23.5,9,43.1,19.6,58.2,31.6l0.7,5.2C1019.3,164.3,999.7,153.7,976.2,144.7"/>
					<path class="st24" d="M1034.4,176.3l-0.7-5.2c2.1,1.7,4.2,3.5,6.2,5.2l0.7,5.2C1038.6,179.8,1036.5,178,1034.4,176.3"/>
					<path class="st13" d="M1040.5,181.5l-0.7-5.2c8.9,8.1,15.9,16.7,20.7,25.9l0.7,5.2C1056.4,198.2,1049.5,189.6,1040.5,181.5"/>
				</g>
			</g>
			<g>
				<path class="st25" d="M557.3,121.9c268.2-37.7,497.5,10.6,511.1,107.6c13.6,97-193.5,206.7-461.7,244.4
					c-268.2,37.7-497.5-10.6-511.1-107.6C82,269.2,289.1,159.6,557.3,121.9z"/>
			</g>
			<g class="st0">
				<defs>
					<path id="SVGID_13_" class="st0" d="M92.7,366.7l-0.7-5.2c-6.8-48.1,38-100.3,126-147.1c87.6-46.5,207.7-82.3,338.2-100.6
						c130.5-18.3,255.8-17.1,352.8,3.5l0.7,5.2c-97-20.6-222.3-21.8-352.8-3.5C426.4,137.3,306.3,173,218.7,219.6
						C130.7,266.3,85.9,318.6,92.7,366.7z"/>
				</defs>
				<clipPath id="SVGID_14_">
					<use xlink:href="#SVGID_13_"  style="overflow:visible;"/>
				</clipPath>
				<g class="st26">
					<path class="st11" d="M92.7,366.7l-0.7-5.2c-6.8-48.1,38-100.3,126-147.1c3-1.6,6-3.1,9-4.7l0.7,5.2c-3,1.6-6,3.1-9,4.7
						C130.7,266.3,85.9,318.6,92.7,366.7"/>
					<path class="st10" d="M227.7,214.9l-0.7-5.2c36-18.4,77.2-35,122-49.4l0.7,5.2C304.9,179.9,263.7,196.5,227.7,214.9"/>
					<path class="st9" d="M349.7,165.5l-0.7-5.2c48.6-15.6,101.5-28.6,156.9-38.5l0.7,5.2C451.2,136.8,398.3,149.9,349.7,165.5"/>
					<path class="st7" d="M506.6,126.9l-0.7-5.2c16.5-3,33.3-5.6,50.2-8c39.7-5.6,78.8-9.3,116.9-11.3l0.7,5.2
						c-38,2-77.2,5.7-116.9,11.3C539.9,121.3,523.2,124,506.6,126.9"/>
					<path class="st2" d="M673.8,107.6l-0.7-5.2c47.4-2.4,93-2.1,135.7,1l0.7,5.2C766.8,105.5,721.2,105.2,673.8,107.6"/>
					<path class="st3" d="M809.4,108.7l-0.7-5.2c35.3,2.6,68.6,7.1,99.1,13.5l0.7,5.2C878,115.8,844.8,111.3,809.4,108.7"/>
					<path class="st4" d="M908.5,122.2l-0.7-5.2c0.4,0.1,0.8,0.2,1.2,0.2l0.7,5.2C909.3,122.4,908.9,122.3,908.5,122.2"/>
				</g>
			</g>
			<g>
				<path class="st27" d="M909.7,122.4c97.5,20.7,155,58.6,161.7,106.7c6.8,48.1-38,100.3-126,147.1
					c-87.6,46.6-207.7,82.3-338.2,100.6c-130.5,18.3-255.8,17.1-352.8-3.5c-97.5-20.7-154.9-58.6-161.7-106.7
					c-6.8-48.1,38-100.3,126-147.1c87.6-46.5,207.7-82.3,338.2-100.6C687.4,100.6,812.7,101.8,909.7,122.4z M606.8,473.9
					c268.2-37.7,475.3-147.3,461.7-244.4c-13.6-97-242.9-145.3-511.1-107.6C289.1,159.6,82,269.2,95.6,366.2
					C109.3,463.3,338.6,511.6,606.8,473.9"/>
			</g>
		</g>
	</g>
</g>
<g>
	
		<image style="overflow:visible;opacity:0.33;" width="901" height="357" xlink:href="3DC0AA31F20D2AB2.png"  transform="matrix(1 0 0 1 137 133)">
	</image>
	<g>
		
			<image style="overflow:visible;opacity:0.25;" width="819" height="276" xlink:href="3DC0AA31F20D2AB6.png"  transform="matrix(1 0 0 1 179 173)">
		</image>
		<g>
			<g>
				<path class="st28" d="M254.2,316.7c3.8-0.2,7.9-1.7,12.5-4.5c2.4-1.4,3.7-3.4,4.2-5.6c0.1-0.7,0.1-1.2-0.5-1.3
					c-1.4-0.4-2.1-0.8-2.1-1.3c-0.2-1.7,2.8-8,8.6-19l10.7-19.9c3.7-5.2,7.3-7.5,11.1-7c0.5,0.3,0.7,0.8,0.8,1.4
					c0.1,0.7,0,1.3-0.3,2.2c-1.8,4-3.1,6.3-3.6,6.9l-5.4,10.2l-4.7,8.5c-3.3,5.8-4.6,11.3-4.2,16.6c0.6,6.6,3.9,9.8,9.9,9.5
					c6.7-0.4,14.1-4.5,22.5-12.1c2.9-3.3,4.3-5.6,4.2-6.7c-0.1-0.8-0.6-1.1-1.8-1c-0.5,0.2-1.6,0.7-3.4,1.6
					c-0.8,0.2-1.5,0.3-2.1,0.4c-0.5,0-1,0.1-1.3,0c-0.9-0.6-1.1-1.4-0.9-2.6c0.7-1.7,1.4-3.3,2.2-4.9l6.7-12.2
					c8.5-15.2,13.8-26.5,15.9-34.3c0.6-2.4,0.6-4.4,0-5.9c-1-2.2-3.3-3.2-6.8-2.9c-1,0.1-2.3,0.4-4.1,0.9c-8,2.2-16.9,6.9-26.5,14
					c1.5-3.8,2.1-6.7,1.9-8.7c-0.2-2.7-2.2-3.8-5.8-3.5c-4.1,0.4-9.9,2.9-17.4,7.5c-1.4,0.8-3.8,2.9-7.3,6.2
					c-0.9,1.1-1.3,2.6-0.9,4.6l-0.2,1.5c-1.7,5.3-4.2,11.1-7.7,17.6l-9.3,16.9c-3.4,6.2-4.9,12.2-4.4,17.8c0.1,0.8,0.2,1.8,0.4,2.6
					C246.8,314.7,249.9,317,254.2,316.7z M298.7,276.3l-9,16.2c-1.5,4-2.7,7.3-3.6,10.2c-0.3-0.1-0.6-0.8-0.7-1.6
					c-0.2-2,0.1-4.4,1-7c0.9-2.6,4-8.9,9.3-18.9c5.3-10,8.1-15.1,8.8-15.2c0.3,0.1,0.5,0.5,0.6,0.9
					C305.3,262.8,303.1,268,298.7,276.3z M309.1,243.7c7-3.5,11.9-5.4,14.7-6.2c1.8-0.2,2.7-0.1,2.7,0.1l-8.4,3.6
					c-1.8,0.8-5.1,2.8-9.8,6.1c-3.9,2.9-7.3,4.5-10.1,5.3c-0.5-0.1-0.7-0.3-0.7-0.6C297.3,250.3,301.2,247.6,309.1,243.7z
					 M256.2,283.9l10.3-18.7c2.9-5.1,4.2-8.9,4-11.4c0-0.5-0.3-1-0.5-1.3c-0.5-2.1,2.6-4.8,9.1-8c6.2-3.3,10.6-4.8,13-4.5
					c0.5,0.1,0.5,0.3,0.4,0.8c-6.9,3-11.3,4.9-12.9,5.7c-5.6,2.7-8.2,5.8-7.8,9.3c-0.6,5.9-3.9,13.8-9.9,23.5
					c-6.5,10.8-10.5,18.7-11.6,23.5c-0.5,2.2-0.9,3.3-1.2,3.3c-0.5-0.3-0.8-0.9-0.8-1.9C248.1,300.7,250.6,294,256.2,283.9z"/>
				<path class="st28" d="M326.4,289.7c0.4,4.5,1.9,8,4.4,11c4,4.8,9.3,6.7,16,5.2c1.5-0.3,3.7-1.3,6.8-3c3-1.8,5.4-2.7,7.3-3
					c10.7-1.5,17.3-5.3,19.7-11.5c0.1-0.8,0-1.5-0.2-2.2c-0.4-0.5-0.9-0.6-1.6-0.5c-0.8,0.1-2.4,0.9-4.8,2.5c-2.4,1.4-3.8,2.2-4,2.2
					c-1.5,0.1-2.2,0-2-0.1l0.7-1.1c7.3-6,12-16.8,11.1-26.1c-1-10.8-8.7-16.8-19.5-15.8c-11.1,1-20.5,8.1-28.2,21.2
					C327.6,276,325.8,283,326.4,289.7z M373.9,291c2.1-1.4,3.2-2,3.5-1.8c0.1,1.5-3.6,4-5.6,4.4C371.2,293.1,372,292.3,373.9,291z
					 M342.7,296.4c-2.2,0-3.6-1-4.3-3c-0.7-1.9-0.4-4.1,0.9-6.4c0.7-1.6,1.3-2.3,1.6-2.2c1,1.7,1.6,3.2,1.9,4.3
					c0.2,0.5,0.8,1.8,2.2,3.8c0.8,1.2,1.4,2,1.7,2.2c-0.3,0.2-0.9,0.5-1.8,0.8C344.2,296.2,343.6,296.3,342.7,296.4z M345.8,300.9
					c-0.2,0-0.3-0.1-0.4-0.3c-0.1-1,2.2-2.9,7-5.8c0.2,0.5,0.2,0.8,0.3,1.1C352.9,298.1,350.6,299.8,345.8,300.9z M354.6,277.9
					c-0.3-3,0.4-4.7,2.2-5.2c2.1-0.5,3.5,0.3,4.3,2.6c0.3,1.3,0.4,2.6,0.2,4c-0.5,3.6-1.7,5.3-3.3,5.7
					C356.2,284.6,355.2,282.3,354.6,277.9z M364.5,281.6c0.8-2.4,1.3-3.6,1.8-3.7c0.2,0.2,0.4,0.3,0.4,0.8c0.4,4.1-2.9,10-6.9,11
					c-0.5-0.3,0-1.5,1.5-3.8L364.5,281.6z M341.8,261c4-5.6,9.1-8.7,15.2-9.3c1.2-0.1,2.2-0.2,3.2-0.1c0.2,0.2,0.3,0.1,0.4,0.3
					c0,0.2-0.2,0.2-0.3,0.4c-7.8,2.4-14.4,7-19.7,13.7c-5.2,6.7-8.2,14.1-8.8,22.4c-0.3,0.2-0.5,0.4-0.6,0.4c-0.6-0.6-1-1.6-1.1-2.7
					c-0.3-3.2,1-7.8,3.6-13.9C336.4,266,339.1,262.2,341.8,261z"/>
				<path class="st28" d="M408.7,300.3c4.6-0.4,9.5-2.7,14.3-6.8c1.4-0.6,2.5,0.1,3.4,2.4c1.8,3,4.6,4.4,8.6,4.1
					c2.3-0.2,6.7-2,13.1-5.2l3.9-2.7c1.2-1,2.3-1.9,3.2-2.8c2.1,2.4,5.3,3.3,9.5,3c5.8-0.5,10.5-3.6,13.9-9.1
					c7.2-14.6,11.7-23.5,13.8-26.9c1.7-1.8,3.6-2.8,5.6-3c0.9,0.3,1.2,0.7,1.3,1.6c0.1,1.3-0.7,3.2-2.9,6.8
					c-7.7,12.9-11.1,21.6-10.2,26c1.3,5.4,5,7.6,11.2,6.7c4.8-0.8,10.2-3.6,16-8.5c3.3-2.8,4.7-5,4.6-6.4c0-0.3-0.2-0.4-0.3-0.6
					c-0.2,0.2-1.5,0.8-3.9,1.6c-1.6,0.7-2.8,0.6-3.5-0.2c-0.9-1.1-0.8-2.8,0.5-5.4c3.5-7.2,6.2-12.5,7.8-15.8
					c2.9-6.3,4.2-11.1,3.5-14.4c-0.9-4.1-3.6-5.9-8.4-5.3c-4.7,1.3-8.8,2.5-12.4,4c-0.8,0.2-1.5,0.3-1.9-0.2c-0.2-0.6,0-1.5,0.6-2.7
					l11.3-24.5l0.9-3.1c-0.1-1-0.7-1.6-1.5-1.9c-1.5-0.2-3.4-0.2-5.2,0.1c-2,0.3-4.3,0.9-6.9,1.8c-6.5,2.3-12.4,5.7-17.8,10
					c-0.2,0.2,0.1,0.8,0.3,1.6c0.4,1.1,0.5,2.3,0.3,3.5c-1.4,4.6-3.2,9.2-5.1,13.4l-18.9,40l-6.1,3c-0.5,0.2-1.1,0.4-1.8,0.5
					c-1.5,0.1-2.7-0.4-3.5-1.9c-0.3-1.1-0.4-2.6-0.4-4.3c1.4-6.8,4.9-15.5,10.6-26.3c1.3-2.5,2.1-4.2,2.2-5.2c0-2.2-1.7-3.7-4.9-4.4
					c-3.4-0.2-8,0.6-14,2.6c-2.1,0.7-3.2,1.1-3.4,1.2l-0.6-0.8c-1.3-1.1-2.3-1.8-3.5-2.2l-2-0.3c-1.5,0-2.9-0.1-4.3,0.1
					c-5.8,0.5-11.6,3.1-17.7,7.5c-12.5,9.2-18.3,19.8-17.1,31.9c0.4,4.1,1.7,7.9,4.2,11.2C398.3,298.8,402.9,300.9,408.7,300.3z
					 M511.4,243.3c1.8-0.2,2.8-0.1,2.9,0.2c0,0.5-1.7,1.3-5.1,2.6c-3.4,1.2-5.7,1.9-7,2.2c-0.3-0.1-0.5-0.5-0.6-0.6
					C501.5,246.9,504.7,245.5,511.4,243.3z M503.9,254.7c0.5,0,0.9,0.3,0.9,0.9c0.1,1-0.4,2.7-1.4,5c-6.6,11.7-10.7,19.9-12.1,24.7
					c-0.2,0.2-0.5,0.4-0.6,0.4c-0.4-0.3-0.6-0.8-0.6-1.4c-0.2-2.7,1.6-8,5.7-15.9C499.3,261.3,502.1,256.7,503.9,254.7z
					 M493.1,218.7c5-2,8.6-3.1,10.9-3.3c0.8-0.1,1.3,0,1.7,0.2c0,0.3-0.1,0.7-0.4,0.9c-3.1,0.8-6.3,2.1-9.7,3.9
					c-2.1,1-5.1,2.8-9.2,5.2c-0.9-0.3-1.4-0.5-1.4-1C484.7,223,487.4,221.1,493.1,218.7z M464.1,273.5l6.4-12.5
					c8.6-17,13.6-28.5,15.2-34.4l0.6-0.6c0.3,0,0.4,1.1,0.5,3.5c-2.4,8.4-6.2,17.8-11.4,28.5l-13.8,27.7c-0.5,0.5-1.2,1.1-2,1.5
					c-0.2-0.2-0.4-0.3-0.4-0.8C459,284.6,460.6,280.3,464.1,273.5z M441.6,248.4c2.4-0.7,4.3-1.1,5.6-1.2c1.2-0.1,1.8,0,2,0.1
					c0.1,1-3.8,2.4-11.5,4.1l-0.6-0.6C437,250,438.5,249.2,441.6,248.4z M434.6,268.7c0.3,0,0.6,0.6,0.7,1.9
					c-1.8,10.9-5.8,16.8-11.7,17.8c0,0,1-1.4,3.1-4.5l3.4-5.2C432.5,272,434.1,268.7,434.6,268.7z M429.6,271.1
					c-1.5,5-3.5,9-5.8,11.7c-0.5,0.5-1.3,0.8-2.4,0.9c-1.3,0.1-2.6-0.4-3.8-1.5c-2-1.8-2.8-4.4-1.9-7.7c1.2-5,3.8-8.2,7.6-9.7
					C427.9,263.1,431,266.5,429.6,271.1z M397,268.1c1.8-3.7,3.6-6.2,5.1-7.8c7.3-7.7,15-11.9,22.8-12.6c0.5,0.1,0.7,0.3,0.9,0.4
					c0,0.2-0.1,0.3-0.5,0.5c-8,2.2-14.5,6-19.5,11.3c-5.5,5.7-8.9,12.4-10,20.2c-0.1,0.5-0.3,0.7-0.6,0.9c-0.9-0.4-1.3-1.4-1.4-2.5
					C393.6,276.1,394.6,272.7,397,268.1z"/>
				<path class="st28" d="M517.5,278.6C517.5,278.6,517.5,278.6,517.5,278.6C517.6,278.6,517.6,278.6,517.5,278.6z"/>
				<path class="st28" d="M553.5,240.5c3.4,2.4,7.8,3.3,13.1,2.8c5-0.5,10.2-2.4,15.5-5.8l0.3-0.4c0-0.5-0.6-0.9-1.6-1.5
					c-2.2-1.8-3.4-3.9-3.4-6.2c-0.1-3,1.5-5.8,4.7-8.5c4.2-3.6,9.5-5.6,16-6.2c5.1-0.5,10.4,0,15.7,1.4l6.8,2.6c3,1.2,6.7,1.6,11,1
					c10.1-1.1,17.6-5.6,22.3-13.6c1.2-1.9,1.2-3.1,0-3.8c-0.7-0.1-1.3,0-2.2,0.2c-2.1,0.9-3.2,1.3-3.2,1.3
					c-3.4,1.5-7.3,2.2-11.7,2.1c-5.7,0-11.2-1.1-16.4-3.2c-7.1-2.9-11.8-4.4-14-5.1c-3.1-0.7-7.6-1-13.8-0.6
					c-2.1,0.4-3.8,0.7-5.3,0.8l-4.8,0.9c-1.8,0.7-3.4,1.2-4.9,1.5l-5.6,2.5c-4.5,1.9-8.9,4.8-13.3,8.8c-7.6,6.7-11.1,13.4-10.5,20.2
					C548.7,235.5,550.4,238.4,553.5,240.5z M643,209.8c0.6-0.4,1-0.3,1,0.4c-0.5,0.2-0.8,0.4-1,0.4c-0.3-0.1-0.5-0.1-0.5-0.3
					C642.6,210.2,642.7,210,643,209.8z M592.6,201.5c0.5,0,0.8,0.1,0.9,0.4c0,0.2,0,0.3-0.1,0.5l-1.3,0.1l-0.4-0.5
					C591.6,201.8,591.9,201.6,592.6,201.5z M554.7,221.3c2.2-3.7,4-5.9,5.8-6.6c8.2-7.4,17.5-11.7,28-12.6c0.5,0.1,0.7,0.3,0.9,0.4
					c0,0.2-0.1,0.3-0.5,0.5c-8.4,1.8-15.6,5-21.9,9.4c-7.4,5.2-11.8,11.5-13.5,18.8c-0.2,0-0.3,0-0.5,0.2c-0.5-0.5-1-1.3-1-2.1
					C551.8,227.6,552.7,224.8,554.7,221.3z"/>
				<path class="st28" d="M611.8,259.2c0.7,0.4,1.7,0.5,3.2,0.4c0.5-0.2,1-0.4,1.4-1c1-2.3,1.6-4.2,1.7-5.3c0.7-1.9,1.6-4.2,2.9-6.8
					c0.6-1.2,1.9-3.4,4.1-6.4c1.3-2,1.9-3.4,1.6-4.2c-0.5-1.8-2-2-4.6-0.9c-4.2,1.9-6.4,2.8-7,2.6c-2.3,0-3.3-0.9-2.9-2.4
					c1.8-4.3,3.3-7.7,4.6-9.8c0.4-1.2,0.6-2.4,0.5-3.4c-0.1-0.7-0.3-1.3-0.7-1.8c-1.3-1.6-4-2.1-8.2-1.8c-2.5,0.2-6.7,1.6-12.7,4.2
					c-6.6,2.8-9.8,4.9-9.6,6.4c0,0.3,0.2,0.5,0.6,0.6c2.2,0.5,3.5,1.5,3.7,3.3c0.1,1.3-0.4,3.4-1.3,6.1
					c-4.1,11.6-9.5,20.6-16.4,26.8l-0.6,0.6c-2.5,2.4-4.1,4.1-4.9,5c-3.4,3.5-4.6,6.3-3.9,8.2c0.4,1.1,1.5,2,3.4,2.5
					c5.6,1.2,9.8,1.4,12.6,0.8c8.7-2,16.3-10.2,22.8-25c1-2.3,1.8-4.3,2.3-6.2c1.2-3,2.4-4.6,3.6-5c2-0.3,3.2,0.4,3.5,1.9l-0.7,4.9
					C610.1,256.2,610.5,258.1,611.8,259.2z M621.1,239.2c0.2,0,0.3,0,0.3,0.1c0,0.2-0.3,0.5-0.7,1.1c-1.7,1.3-3,2.1-3.8,2.4
					c-0.2-0.2-0.4-0.3-0.4-0.5C616.5,241.5,620,239.4,621.1,239.2z M586.8,257.6c-5.2,7.7-11.2,14.6-17.9,20.4
					c-0.6,0.2-1.1,0.4-1.5,0.5c-0.3-0.1-0.5-0.3-0.6-0.6c-0.1-0.7,1.1-2.3,3.6-5c9.8-7.8,17.8-20.7,24-38.7l0.6-0.6l0.5,0.5
					C596,240.6,593,248.4,586.8,257.6z M602.2,226.6l-8.2,3.1c-2.6-0.6-3.8-1.2-3.8-1.3c0-0.3,1.1-0.6,3.6-0.8
					c5.3-2.3,8.9-3.8,10.3-4.1c2.5-0.2,3.8-0.2,3.9,0.1C608,224.1,606.1,225.1,602.2,226.6z M615,250.5c0.2,0,0.4,0.3,0.4,0.8
					c-0.6,2.9-1.1,4.5-1.6,4.7c-0.2-0.2-0.2-0.3-0.2-0.8C613.5,254.3,614.3,250.6,615,250.5z"/>
				<path class="st28" d="M632.8,260.4c0.4,4.1,1.7,7.9,4.2,11.2c3.5,4.9,8,7,13.8,6.4c4.6-0.4,9.5-2.7,14.3-6.8
					c1.4-0.6,2.5,0.1,3.4,2.4c1.8,3,4.6,4.4,8.6,4.1c2.3-0.2,6.7-2,13.1-5.2l3.9-2.7c3.7-3.2,6.2-5.4,7.2-7c0.2-0.5,0.4-1,0.4-1.4
					c0,1.9,0.6,3.8,1.6,5.6c2.3,3,5.4,4.2,9.4,4c5.7-0.4,12.1-3.3,19.3-8.6c2.1-2.4,3.2-3.8,3.1-4.5c-0.1-0.7-0.6-0.9-1.8-0.8
					l-2.9,0.9c-1.6,0.5-2.8,0.8-3.3,0.6c-0.9-0.4-1.3-0.9-1.2-1.7c0.7-1.7,1.2-2.8,1.5-3.3c10.4-18.4,15.4-29.4,15-33
					c-0.2-2.3-2.3-3.3-6.1-3c-3.7,0.3-8.7,2.1-15.2,5.3c-1.8,0.8-3.8,2.2-6,4.1c-0.5,0.5-0.6,1.1-0.5,1.7c0,0.5,0.1,0.8,0.3,1.3
					l0.1,1c-0.6,2.7-1.4,5.1-2.5,7.3c-0.1,0.5-1.4,2.6-3.6,6.7c-4.6,8.2-7,13.4-7.2,15.5c0-0.1,0-0.2-0.1-0.3
					c-0.2-0.8-0.9-1.1-2.1-1l-6.2,3.1c-0.5,0.2-1.1,0.4-1.8,0.5c-1.5,0.1-2.7-0.4-3.5-1.9c-0.3-1.1-0.4-2.6-0.4-4.3
					c1.4-6.8,4.9-15.5,10.6-26.3c1.3-2.5,2.1-4.2,2.2-5.2c0-2.2-1.7-3.7-4.9-4.4c-3.4-0.2-8,0.6-14,2.6c-2.1,0.7-3.2,1.1-3.4,1.2
					l-0.6-0.8c-1.3-1.1-2.3-1.8-3.5-2.2l-2-0.3c-1.5,0-2.9-0.1-4.3,0.1c-5.8,0.5-11.6,3.1-17.7,7.5
					C637.4,237.7,631.7,248.3,632.8,260.4z M712.3,245.9c4.8-8.1,7-13,6.8-14.9c-0.1-0.8-0.3-1.5-0.8-1.9c-0.3-1.1,2.1-2.7,7.1-4.7
					c4.3-1.9,7.6-2.9,9.4-3c1-0.1,1.7,0,1.9,0.3l-8.1,3.3c-5.5,2.2-8.1,4.4-8.1,6.8c-0.8,3.9-2.4,8.3-5,13l-6.9,12.4
					c-0.9,2.8-1.6,4.3-2.1,4.5c-0.5-0.5-0.9-1.1-1-1.9C705.4,258.6,707.7,253.9,712.3,245.9z M683.7,226.1c2.4-0.7,4.3-1.1,5.6-1.2
					c1.2-0.1,1.8,0,2,0.1c0.1,1-3.8,2.4-11.5,4.1l-0.6-0.6C679.1,227.7,680.6,226.9,683.7,226.1z M676.7,246.3
					c0.3,0,0.6,0.6,0.7,1.9c-1.8,10.9-5.8,16.8-11.7,17.8c0,0,1-1.4,3.1-4.5l3.4-5.2C674.6,249.7,676.2,246.4,676.7,246.3z
					 M671.7,248.8c-1.5,5-3.5,9-5.8,11.7c-0.5,0.5-1.3,0.8-2.4,0.9c-1.3,0.1-2.6-0.4-3.8-1.5c-2-1.8-2.8-4.4-1.9-7.7
					c1.2-5,3.8-8.2,7.6-9.7C670,240.8,673.1,244.2,671.7,248.8z M667.9,225.7c0,0.2-0.1,0.3-0.5,0.5c-8,2.2-14.5,6-19.5,11.3
					c-5.5,5.7-8.9,12.4-10,20.2c-0.1,0.5-0.3,0.7-0.6,0.9c-0.9-0.4-1.3-1.4-1.4-2.5c-0.2-2.3,0.8-5.8,3.2-10.3
					c1.8-3.7,3.6-6.2,5.1-7.8c7.3-7.7,15-11.9,22.8-12.6C667.6,225.4,667.7,225.6,667.9,225.7z"/>
				<path class="st28" d="M736.8,212.7c3-0.3,5.9-1.4,8.7-3.5c3.3-2.3,4.7-4.8,4.5-7.6c-0.3-2.8-1.6-4.5-4.2-5.5
					c-2.6-0.9-5.4-0.7-8.8,0.5c-7.5,2.7-10.6,6.7-9.6,11.8C728.1,211.8,731.2,213.2,736.8,212.7z M734.2,202.1
					c2.2-1.5,4-2.4,5.5-2.5c0.8-0.1,1.5,0,1.9,0.5c0,0.3-1.1,1.1-3.3,2.3c-2.2,1.2-3.5,2-3.6,2.2c-1.2,1.6-2.1,2.5-2.6,2.7
					c-0.5-0.3-0.9-0.8-1-1.3C730.9,204.9,732,203.4,734.2,202.1z"/>
				<path class="st28" d="M754.5,226c-0.6,3.1-2.8,7.8-6.4,14.3c-0.4,1-2,3.7-4.5,7.9c-1.9,3-2.8,5.8-3.1,8.3
					c-0.3,2.2,0.2,4.3,1.4,6.6c2.1,3,5.3,4.4,9.3,4.2c3.8-0.2,7.4-1.4,11.1-3.4c1.9-1,3-2.3,3.2-3.8c0.1-0.5-2.8-0.9-2.9-2.1
					c-0.1-1.2,1.8-5.5,5.9-12.8l7.3-13.2c2.7-3.4,5.7-5.2,9.2-5c1,0.4,1.3,1.2,0.9,2.4c-0.9,2.4-1.8,4-2.4,4.7
					c-6.2,11.3-9.2,17.8-9.2,19.6c-0.1,0.8,0,1.5,0,2c0.1,1.5,0.6,3,1.4,4.4c2.3,3,5.4,4.2,9.4,4c5.8-0.4,12.2-3.3,19.5-8.7
					c2-2.2,3-3.6,2.9-4.5c-0.1-0.7-0.6-0.9-1.8-0.8l-2.8,0.9c-1.8,0.7-2.9,0.8-3.5,0.7c-0.7-0.4-1.1-0.9-1-1.7
					c1.7-3.7,3.7-7.5,6.1-11.6c7.4-12.6,11-20.9,10.6-25.1c-0.3-3-2.7-4.3-7.2-3.9c-1.2,0.1-2.6,0.4-4.1,0.7c-7,1.7-14.6,5-22.7,10
					c0.8-2.7,1.1-4.5,1.1-5c-0.2-2.5-2.3-3.5-6.1-3.1c-3.8,0.4-8.8,2.2-15.4,5.4c-1.3,0.6-3.3,2.1-6,4.2c-0.8,0.7-0.8,1.8-0.4,3
					L754.5,226z M791.3,231.8c-4.7,9.3-8.4,16.3-11,20.9c-0.4,1.4-0.8,2.1-1.3,2.3c-0.5-0.3-0.7-0.8-0.8-1.6
					c-0.2-2.3,1.7-6.9,5.6-13.7l6.5-10.8l0.3-0.4c0.5-0.2,0.6-0.2,0.9,0.3C791.6,229.7,791.6,230.7,791.3,231.8z M794.1,217.1
					c6.3-2.1,10.4-3.3,11.9-3.4c1.2-0.1,1.8,0,1.9,0.5c-1.6,3-5.4,5.2-11.1,6.9c-1.1,0.3-5.7,1.2-13.7,2.6c-0.2,0-0.2-0.2-0.4-0.3
					C782.8,222.8,786.6,220.7,794.1,217.1z M758.4,225.6c-0.1-0.7-0.3-1.1-0.6-1.4c-0.3-1.1,2.1-2.9,7.1-4.8
					c4.3-1.9,7.6-2.9,9.6-3.1c1-0.1,1.5,0,1.7,0.3c-10.1,4.8-15.5,7.6-16.3,8.7c0.2,4.3-1.5,9.7-5.4,16.2
					c-4.9,8.3-7.8,13.6-8.4,15.8l-0.8,0.6c-0.4-0.3-0.6-0.8-0.7-1.6c-0.1-0.7,0-1.5,0.3-2.5l7.5-13.2
					C756.6,233.1,758.7,228.1,758.4,225.6z"/>
				<path class="st28" d="M814.4,245.7c1.5,10.7,8.2,15.8,19.9,14.9c10.5-1.8,19.8-6.5,27.8-14.3c0.9-1.3,1.1-2.3,0.7-3.2
					c-0.6-0.8-1.1-1.2-1.8-1.3c-0.7-0.1-1.8,0.2-3.2,1.1c-7.1,4.5-12.8,6.7-16.8,6.6c-3.1-0.6-4.7-2.1-4.9-4.4
					c-0.2-2,0.4-3.2,1.8-3.8c4.5-0.6,7.6-1.2,9.5-1.9c8.6-3.3,15.2-9.1,20-17.6c2.6-4.6,3.6-8.7,2.7-12.1c-1.2-6.1-6.2-8.6-14.6-7.7
					c-8.8,1-17.3,4.6-25.7,11.2s-13.7,15-15.6,25.4C813.9,240.9,814,243.2,814.4,245.7z M852.2,247.6c2.5-2.1,4.6-3.3,6.2-3.4
					c0.7-0.1,1.3,0,1.9,0.3c0.1,0.8-1.6,2.3-5.3,4.5c-3,1.8-5.4,2.8-7.2,3.5c-0.2,0-0.2,0-0.2-0.2
					C847.6,251.9,849.1,250.2,852.2,247.6z M840.2,235.1c-1.2-0.1-1.4-0.7-1-1.9c2.1-3,5.3-5.8,9.6-8.2c1.6-0.7,2.9-0.9,3.8-1
					c1.8-0.2,2.7,0.4,2.8,1.6c0,0.2,0,0.5-0.1,1c-0.8,1.8-2.4,3.4-4.7,4.8c-1.3,0.8-3.3,1.8-6.2,3.1
					C842.1,234.9,840.8,235.2,840.2,235.1z M859.1,227.7c-2.1,4.4-7,7.7-15,9.9c-0.2-0.2-0.3-0.1-0.4-0.3c0-0.5,1.1-1.1,3.3-2
					l4.2-1.7l4.3-3.7C857.9,227.8,859,227.2,859.1,227.7z M828.6,218.5c6.3-5.8,14.2-9.8,23.5-12.2c2.2-0.2,3.3-0.1,3.4,0.2
					c0,0.3-1.7,1.2-5.5,2.5l-6.8,2.3c-12.7,7-20.6,16.6-23.6,28.8c0,1.5-0.3,2.2-0.8,2.4c-0.2-0.3-0.4-0.6-0.4-0.8
					C817.5,233,821,225.3,828.6,218.5z"/>
				<path class="st28" d="M965.4,227c-3.6-1.3-7.5-1.3-11.2-0.3c-5.3,1.4-15.4,4.9-31.5,13.1c-0.4,0.2-0.7,0.4-1.1,0.6
					c-4.9,2.8-8.1,4.3-9.5,4.4c-2,0.3-3.4-0.5-3.4-2.5c1.3-5.6,5.7-12.2,13.2-20c1.1-1.1,1.3-2.5,0.3-4c-1.4-2.4-2.6-6.1-3.2-11.1
					c-0.6-1.4-1.3-1.9-2.5-1.6c-5.5,3.4-10.7,5.2-15.2,5.4c-2.3,0-4.5-0.1-6.4-0.4c-0.9-0.4-1-1.6-0.5-3.1c1.1-4,0.9-7.1-0.8-9.1
					c-1.3-1.7-3.1-2.4-5.1-2.4c-2.7,0.1-5.1,1.1-7.2,3.3c-3.7,3.7-5.3,8-4.8,12.8c0,0.3,0.7,2.4,2.1,6.3c0.2,0.8-0.2,1.9-1,3.3
					c-2.8,4.4-5.4,8.2-7.7,10.9c-0.8,1.9-1.2,3.3-1,4.1c0.3,2,1.6,2.9,3.4,2.7c1.3-0.1,2.8-0.9,4.3-2.2c3.2-3.8,4.7-5.6,4.7-5.6
					c3.7-4.9,6.2-7.4,7-8c0.8-0.6,2.4-0.7,5-0.5c2.9,0.2,4.1,0.8,3.7,2l-3.4,6.5c-1,2.3-1.6,4.2-2.2,5.7c-1.4,5.3-1.3,9.5,0,12.4
					c1.1,2.4,3.2,4.2,6.2,5.3c1.9,0.7,4.1,0.8,6.6,0.6c2.8-0.3,5.6-1,8.5-2.3c4.9-3,9.5-6.2,13.3-9.9l1.2-1.4
					c3.4-2.5,12.1-8.4,17.2-7.7c7.4,1,15.8,14.8-2.7,25.5c-14.1,8.1-506.9,128.5-664.3,86.8c0,0-96.1-43.3-41,44.7
					c49.5,78.9,579.4-77.3,688.1-110.4c15.9-4.8,30-14.5,39.8-28C972,242.2,976.5,231,965.4,227z M879.9,228.3
					c-3.1,4.5-5.2,6.7-6.7,7c-0.5-0.5,0.8-2.7,3.7-7c4.3-6.3,6.7-9.5,7-9.5c0.2,0.2,0.4,0.5,0.4,0.8
					C884.4,221,883,223.8,879.9,228.3z M888.9,200.9l-3,2.3c-1.9,3-3.3,5.8-4.4,8.1c-0.9-0.8-1.3-1.6-1.4-2.5
					c-0.2-1.7,0.7-3.4,2.7-5.4c2-2,3.9-3.2,5.5-3.4C889,199.8,889.1,200.2,888.9,200.9z M898.8,234.2l-3.5,10.9
					c-0.2-0.5-0.4-1.1-0.5-2c-0.2-2.2,0.5-5.7,2.2-10.6c1.7-5.3,3.4-8,5.3-8.2c0.3,0.1,0.5,0.5,0.6,0.9
					C902.9,225.8,901.5,228.8,898.8,234.2z M905.4,215.2c-0.1-0.7,1.5-1.6,4.7-3.1c2.2-1,3.9-1.5,5-1.6c0.5,0,0.8,0.1,0.9,0.4
					c0,0.3-0.3,0.9-1,1.6c-2.4,1.4-5.5,2.3-9.4,3C905.4,215.4,905.4,215.4,905.4,215.2z M920.9,244.9c-2.1,1.2-3.7,2-5.1,2.6
					c-0.2,0-0.2,0-0.2-0.2c0-0.5,1-1.6,3.4-3.2c2.8-1.8,4.6-2.8,5.3-2.7C924.7,242.2,923.6,243.3,920.9,244.9z"/>
				<g id="highlight_13_">
					
						<image style="overflow:visible;" width="106" height="117" xlink:href="3DC0AA31F20D2AB1.png"  transform="matrix(1 0 0 1 190 310)">
					</image>
				</g>
				<g>
					
						<image style="overflow:visible;" width="642" height="189" xlink:href="3DC0AA31F20D2AB3.png"  transform="matrix(1 0 0 1 229 259)">
					</image>
				</g>
			</g>
		</g>
	</g>
</g>
</svg>
