<?xml version="1.0" encoding="utf-8"?>
<!-- Generator: Adobe Illustrator 22.0.1, SVG Export Plug-In . SVG Version: 6.00 Build 0)  -->
<svg version="1.1" xmlns="http://www.w3.org/2000/svg" xmlns:xlink="http://www.w3.org/1999/xlink" x="0px" y="0px"
	 viewBox="0 0 612 792" style="enable-background:new 0 0 612 792;" xml:space="preserve">
<style type="text/css">
	.st0{fill:#F7941D;}
	.st1{fill:#F7931E;}
	.st2{fill:#F7921E;}
	.st3{fill:#F7911E;}
	.st4{fill:#F7901E;}
	.st5{fill:#F78F1E;}
	.st6{fill:#F78E1E;}
	.st7{fill:#F78D1E;}
	.st8{fill:#F78C1E;}
	.st9{fill:#F68C1F;}
	.st10{fill:#F68B1F;}
	.st11{fill:#F68A1F;}
	.st12{fill:#F6891F;}
	.st13{fill:#F6881F;}
	.st14{fill:#F6871F;}
	.st15{fill:#F6861F;}
	.st16{fill:#F6851F;}
	.st17{fill:#F5841F;}
	.st18{fill:#F5831F;}
	.st19{fill:#F58220;}
	.st20{fill:#F58120;}
	.st21{fill:#F58020;}
	.st22{fill:#F57F20;}
	.st23{fill:#F57E20;}
	.st24{fill:#F47D20;}
	.st25{fill:#F47C20;}
	.st26{fill:#F47B20;}
	.st27{fill:#F47A20;}
	.st28{fill:#F47920;}
	.st29{fill:#F47821;}
	.st30{fill:#F47721;}
	.st31{fill:#F47621;}
	.st32{fill:#F47521;}
	.st33{fill:#F47421;}
	.st34{fill:#F37321;}
	.st35{fill:#F37221;}
	.st36{fill:#F37121;}
	.st37{fill:#F37021;}
	.st38{fill:#F36F21;}
	.st39{fill:#F36E21;}
	.st40{fill:#F36D21;}
	.st41{fill:#F36C21;}
	.st42{fill:#F36B21;}
	.st43{fill:#F26A21;}
	.st44{fill:#F26922;}
	.st45{fill:#F26822;}
	.st46{fill:#F26722;}
	.st47{fill:#F26622;}
	.st48{fill:#F26522;}
	.st49{fill:#F26422;}
	.st50{fill:#F26322;}
	.st51{fill:#F26222;}
	.st52{fill:#F26122;}
	.st53{fill:#F16022;}
	.st54{fill:#F15F22;}
	.st55{fill:#F15E22;}
	.st56{fill:#F15D22;}
	.st57{fill:#F15C22;}
	.st58{fill:#F15B22;}
	.st59{fill:#F15A22;}
	.st60{fill:#F15922;}
	.st61{fill:#F15822;}
	.st62{fill:#F15722;}
	.st63{fill:#F15622;}
	.st64{fill:#F15623;}
	.st65{fill:#F05523;}
	.st66{fill:#F05423;}
	.st67{fill:#F05323;}
	.st68{fill:#F05223;}
	.st69{fill:#F05123;}
	.st70{fill:#F05023;}
	.st71{fill:#F04F23;}
	.st72{fill:#F04E23;}
	.st73{fill:#F04D23;}
	.st74{fill:#F04C23;}
	.st75{fill:#F04B23;}
	.st76{fill:#F04A23;}
	.st77{fill:#F04923;}
	.st78{fill:#EF4823;}
	.st79{fill:#EF4723;}
	.st80{fill:#EF4623;}
	.st81{fill:#EF4523;}
	.st82{fill:#EF4323;}
	.st83{fill:#EF4223;}
	.st84{fill:#EF4123;}
	.st85{fill:#EF4023;}
	.st86{fill:#EF3F23;}
	.st87{fill:#EF3E23;}
	.st88{fill:#EF3D23;}
	.st89{fill:#EF3C24;}
	.st90{fill:#EF3B24;}
	.st91{fill:#EF3924;}
	.st92{fill:#EF3824;}
	.st93{fill:#EE3724;}
	.st94{fill:#EE3624;}
	.st95{fill:#EE3424;}
	.st96{fill:#EE3324;}
	.st97{fill:#EE3224;}
	.st98{fill:#EE3024;}
	.st99{fill:#EE2F24;}
	.st100{fill:#EE2D24;}
	.st101{fill:#EE2C24;}
	.st102{fill:#EE2A24;}
	.st103{fill:#EE2924;}
	.st104{fill:#EE2724;}
	.st105{fill:#EE2524;}
	.st106{fill:#EE2424;}
	.st107{fill:#ED2224;}
	.st108{fill:#ED2024;}
	.st109{fill:#ED1E24;}
	.st110{fill:#ED1C24;}
	.st111{fill:#F7F2F2;}
	.st112{fill:#020202;}
	.st113{fill:#262626;}
	.st114{fill:#FFFFFF;}
</style>
<g id="Layer_5">
</g>
<g id="sunset_bckgrd">
	<g>
		<polygon class="st0" points="0,0 306,0 612,0 612,396.7 612,793.3 306,793.3 0,793.3 0,396.7 		"/>
		<path class="st1" d="M0.7,4.5C1.2,4.1,305.4,3.8,306,3.8s304.9,0.3,305.3,0.7c0.4,0.4,0.7,394.6,0.7,395.2s-0.3,394.8-0.7,395.2
			c-0.4,0.4-304.6,0.7-305.3,0.7S1.2,795.4,0.7,795C0.3,794.5,0,400.4,0,399.7S0.3,4.9,0.7,4.5z"/>
		<path class="st2" d="M1.5,9C2.3,8.1,304.7,7.6,306,7.6c1.3,0,303.7,0.5,304.6,1.4s1.4,392.5,1.4,393.8c0,1.3-0.5,392.9-1.4,393.8
			S307.3,798,306,798c-1.3,0-303.7-0.5-304.6-1.4S0.1,404.1,0.1,402.8C0.1,401.5,0.6,9.9,1.5,9z"/>
		<path class="st2" d="M2.2,13.5c1.3-1.3,301.9-2.1,303.8-2.1c2,0,302.6,0.8,303.8,2.1c1.3,1.3,2.1,390.4,2.1,392.4
			c0,2-0.8,391.1-2.1,392.4c-1.3,1.3-301.9,2.1-303.8,2.1c-2,0-302.6-0.8-303.8-2.1C0.9,797,0.1,407.8,0.1,405.9
			C0.1,403.9,0.9,14.8,2.2,13.5z"/>
		<path class="st3" d="M2.9,18c1.7-1.7,300.5-2.8,303.1-2.8c2.6,0,301.4,1.1,303.1,2.8s2.8,388.3,2.8,391s-1.1,389.2-2.8,391
			s-300.5,2.8-303.1,2.8c-2.6,0-301.4-1.1-303.1-2.8s-2.8-388.3-2.8-391S1.2,19.7,2.9,18z"/>
		<path class="st4" d="M3.6,22.5C5.8,20.3,302.8,19,306.1,19c3.3,0,300.3,1.3,302.4,3.5c2.1,2.1,3.5,386.3,3.5,389.5
			s-1.3,387.4-3.5,389.5c-2.1,2.1-299.1,3.5-302.4,3.5c-3.3,0-300.3-1.3-302.4-3.5C1.5,799.4,0.2,415.3,0.2,412S1.5,24.6,3.6,22.5z"
			/>
		<path class="st4" d="M4.4,27c2.6-2.6,297.8-4.2,301.7-4.2c3.9,0,299.1,1.6,301.7,4.2s4.2,384.2,4.2,388.1s-1.6,385.5-4.2,388.1
			s-297.8,4.2-301.7,4.2c-3.9,0-299.1-1.6-301.7-4.2S0.2,419,0.2,415.1S1.8,29.6,4.4,27z"/>
		<path class="st5" d="M5.1,31.5c3-3,296.4-4.9,301-4.9c4.6,0,298,1.9,301,4.9c3,3,4.9,382.1,4.9,386.7c0,4.6-1.9,383.7-4.9,386.7
			c-3,3-296.4,4.9-301,4.9c-4.6,0-298-1.9-301-4.9c-3-3-4.9-382.1-4.9-386.7C0.2,413.6,2.1,34.5,5.1,31.5z"/>
		<path class="st6" d="M5.8,36c3.4-3.4,295-5.5,300.3-5.5c5.2,0,296.8,2.1,300.3,5.5s5.5,380,5.5,385.3c0,5.2-2.1,381.8-5.5,385.3
			c-3.4,3.4-295,5.5-300.3,5.5c-5.2,0-296.8-2.1-300.3-5.5c-3.4-3.4-5.5-380-5.5-385.3C0.3,416,2.4,39.4,5.8,36z"/>
		<path class="st6" d="M6.6,40.5c3.9-3.9,293.7-6.2,299.5-6.2s295.7,2.4,299.5,6.2c3.9,3.9,6.2,377.9,6.2,383.8
			c0,5.9-2.4,380-6.2,383.8c-3.9,3.9-293.7,6.2-299.5,6.2S10.4,812,6.6,808.1c-3.9-3.9-6.2-377.9-6.2-383.8
			C0.3,418.4,2.7,44.3,6.6,40.5z"/>
		<path class="st7" d="M7.3,45c4.3-4.3,292.3-6.9,298.8-6.9s294.5,2.6,298.8,6.9s6.9,375.9,6.9,382.4s-2.6,378.1-6.9,382.4
			s-292.3,6.9-298.8,6.9s-294.5-2.6-298.8-6.9S0.3,433.9,0.3,427.4S3,49.3,7.3,45z"/>
		<path class="st8" d="M8,49.5c4.7-4.7,290.9-7.6,298.1-7.6s293.4,2.9,298.1,7.6c4.7,4.7,7.6,373.8,7.6,381s-2.9,376.3-7.6,381
			c-4.7,4.7-290.9,7.6-298.1,7.6S12.7,816.1,8,811.4s-7.6-373.8-7.6-381S3.3,54.2,8,49.5z"/>
		<path class="st9" d="M8.7,54c5.1-5.1,289.6-8.3,297.4-8.3s292.3,3.2,297.4,8.3c5.1,5.1,8.3,371.7,8.3,379.6
			c0,7.8-3.2,374.4-8.3,379.6c-5.1,5.1-289.6,8.3-297.4,8.3s-292.3-3.2-297.4-8.3S0.4,441.4,0.4,433.5C0.4,425.7,3.6,59.1,8.7,54z"
			/>
		<path class="st10" d="M9.5,58.5c5.6-5.6,288.2-9,296.7-9c8.5,0,291.1,3.4,296.7,9c5.6,5.6,9,369.6,9,378.1
			c0,8.5-3.4,372.6-9,378.1c-5.6,5.6-288.2,9-296.7,9c-8.5,0-291.1-3.4-296.7-9c-5.6-5.6-9-369.6-9-378.1C0.5,428.1,3.9,64,9.5,58.5
			z"/>
		<path class="st11" d="M10.2,63c6-6,286.8-9.7,296-9.7c9.2,0,290,3.7,296,9.7c6,6,9.7,367.6,9.7,376.7c0,9.2-3.7,370.7-9.7,376.7
			c-6,6-286.8,9.7-296,9.7c-9.2,0-290-3.7-296-9.7c-6-6-9.7-367.6-9.7-376.7C0.5,430.5,4.2,69,10.2,63z"/>
		<path class="st12" d="M10.9,67.5c6.4-6.4,285.4-10.4,295.2-10.4c9.8,0,288.8,4,295.2,10.4c6.4,6.4,10.4,365.5,10.4,375.3
			s-4,368.9-10.4,375.3c-6.4,6.4-285.4,10.4-295.2,10.4c-9.8,0-288.8-4-295.2-10.4C4.5,811.6,0.5,452.6,0.5,442.7
			S4.5,73.9,10.9,67.5z"/>
		<path class="st12" d="M11.6,72c6.9-6.9,284.1-11.1,294.5-11.1S593.9,65.1,600.7,72c6.9,6.9,11.1,363.4,11.1,373.9
			s-4.2,367-11.1,373.9c-6.9,6.9-284.1,11.1-294.5,11.1s-287.7-4.2-294.5-11.1C4.8,812.8,0.6,456.3,0.6,445.8S4.8,78.8,11.6,72z"/>
		<path class="st13" d="M12.4,76.5c7.3-7.3,282.7-11.8,293.8-11.8c11.1,0,286.5,4.5,293.8,11.8c7.3,7.3,11.8,361.3,11.8,372.4
			S607.3,814,600,821.3c-7.3,7.3-282.7,11.8-293.8,11.8c-11.1,0-286.5-4.5-293.8-11.8S0.6,460,0.6,448.9S5.1,83.7,12.4,76.5z"/>
		<path class="st14" d="M13.1,81c7.7-7.7,281.3-12.5,293.1-12.5c11.8,0,285.4,4.8,293.1,12.5c7.7,7.7,12.5,359.2,12.5,371
			c0,11.8-4.8,363.3-12.5,371c-7.7,7.7-281.3,12.5-293.1,12.5c-11.8,0-285.4-4.8-293.1-12.5S0.6,463.7,0.6,452
			C0.6,440.2,5.4,88.7,13.1,81z"/>
		<path class="st14" d="M13.8,85.5c8.1-8.1,280-13.2,292.4-13.2c12.4,0,284.2,5,292.4,13.2c8.1,8.1,13.2,357.2,13.2,369.6
			c0,12.4-5,361.4-13.2,369.6c-8.1,8.1-280,13.2-292.4,13.2c-12.4,0-284.2-5-292.4-13.2S0.7,467.5,0.7,455
			C0.7,442.6,5.7,93.6,13.8,85.5z"/>
		<path class="st15" d="M14.6,90c8.6-8.6,278.6-13.9,291.7-13.9S589.3,81.4,597.9,90c8.6,8.6,13.9,355.1,13.9,368.2
			s-5.3,359.6-13.9,368.2c-8.6,8.6-278.6,13.9-291.7,13.9s-283.1-5.3-291.7-13.9C6,817.7,0.7,471.2,0.7,458.1S6,98.5,14.6,90z"/>
		<path class="st16" d="M15.3,94.5c9-9,277.2-14.6,290.9-14.6s282,5.6,290.9,14.6s14.6,353,14.6,366.7c0,13.7-5.6,357.7-14.6,366.7
			c-9,9-277.2,14.6-290.9,14.6s-282-5.6-290.9-14.6c-9-9-14.6-353-14.6-366.7C0.7,447.5,6.3,103.5,15.3,94.5z"/>
		<path class="st16" d="M16,99c9.4-9.4,275.9-15.3,290.2-15.3S587.1,89.5,596.5,99c9.4,9.4,15.3,350.9,15.3,365.3
			s-5.8,355.9-15.3,365.3c-9.4,9.4-275.9,15.3-290.2,15.3S25.4,839,16,829.6C6.6,820.1,0.8,478.6,0.8,464.3S6.6,108.4,16,99z"/>
		<path class="st17" d="M16.7,103.5c9.9-9.9,274.5-15.9,289.5-15.9s279.7,6.1,289.5,15.9s15.9,348.8,15.9,363.9
			c0,15-6.1,354-15.9,363.9s-274.5,15.9-289.5,15.9s-279.7-6.1-289.5-15.9S0.8,482.4,0.8,467.3C0.8,452.3,6.9,113.3,16.7,103.5z"/>
		<path class="st18" d="M17.5,108c10.3-10.3,273.1-16.6,288.8-16.6c15.7,0,278.5,6.4,288.8,16.6c10.3,10.3,16.6,346.8,16.6,362.5
			c0,15.7-6.4,352.2-16.6,362.5c-10.3,10.3-273.1,16.6-288.8,16.6c-15.7,0-278.5-6.4-288.8-16.6C7.2,822.6,0.8,486.1,0.8,470.4
			C0.8,454.7,7.2,118.2,17.5,108z"/>
		<path class="st19" d="M18.2,112.5c10.7-10.7,271.7-17.3,288.1-17.3c16.3,0,277.4,6.6,288.1,17.3s17.3,344.7,17.3,361
			s-6.6,350.3-17.3,361s-271.7,17.3-288.1,17.3c-16.3,0-277.4-6.6-288.1-17.3S0.9,489.8,0.9,473.5S7.5,123.2,18.2,112.5z"/>
		<path class="st19" d="M18.9,116.9c11.1-11.1,270.4-18,287.4-18c17,0,276.2,6.9,287.4,18c11.1,11.1,18,342.6,18,359.6
			s-6.9,348.5-18,359.6c-11.1,11.1-270.4,18-287.4,18c-17,0-276.2-6.9-287.4-18C7.8,825,0.9,493.5,0.9,476.6S7.8,128.1,18.9,116.9z"
			/>
		<path class="st20" d="M19.7,121.4c11.6-11.6,269-18.7,286.6-18.7c17.6,0,275.1,7.2,286.6,18.7s18.7,340.5,18.7,358.2
			s-7.2,346.6-18.7,358.2c-11.6,11.6-269,18.7-286.6,18.7c-17.6,0-275.1-7.2-286.6-18.7C8.1,826.2,0.9,497.3,0.9,479.6
			S8.1,133,19.7,121.4z"/>
		<path class="st21" d="M20.4,125.9c12-12,267.6-19.4,285.9-19.4c18.3,0,273.9,7.4,285.9,19.4c12,12,19.4,338.5,19.4,356.8
			c0,18.3-7.4,344.8-19.4,356.8c-12,12-267.6,19.4-285.9,19.4c-18.3,0-273.9-7.4-285.9-19.4C8.4,827.5,1,501,1,482.7
			C1,464.4,8.4,137.9,20.4,125.9z"/>
		<path class="st21" d="M21.1,130.4c12.4-12.4,266.3-20.1,285.2-20.1c19,0,272.8,7.7,285.2,20.1s20.1,336.4,20.1,355.3
			c0,19-7.7,342.9-20.1,355.3c-12.4,12.4-266.3,20.1-285.2,20.1c-19,0-272.8-7.7-285.2-20.1C8.7,828.7,1,504.7,1,485.8
			C1,466.8,8.7,142.9,21.1,130.4z"/>
		<path class="st22" d="M21.8,134.9c12.9-12.9,264.9-20.8,284.5-20.8c19.6,0,271.6,7.9,284.5,20.8c12.9,12.9,20.8,334.3,20.8,353.9
			c0,19.6-7.9,341.1-20.8,353.9c-12.9,12.9-264.9,20.8-284.5,20.8c-19.6,0-271.6-7.9-284.5-20.8S1,508.5,1,488.8
			C1,469.2,9,147.8,21.8,134.9z"/>
		<path class="st23" d="M22.6,139.4c13.3-13.3,263.5-21.5,283.8-21.5s270.5,8.2,283.8,21.5s21.5,332.2,21.5,352.5
			c0,20.3-8.2,339.2-21.5,352.5s-263.5,21.5-283.8,21.5s-270.5-8.2-283.8-21.5S1.1,512.2,1.1,491.9C1.1,471.7,9.3,152.7,22.6,139.4z
			"/>
		<path class="st23" d="M23.3,143.9c13.7-13.7,262.1-22.2,283.1-22.2s269.4,8.5,283.1,22.2s22.2,330.1,22.2,351.1
			c0,20.9-8.5,337.3-22.2,351.1s-262.1,22.2-283.1,22.2S37,859.8,23.3,846S1.1,515.9,1.1,495C1.1,474.1,9.6,157.6,23.3,143.9z"/>
		<path class="st24" d="M24,148.4c14.1-14.1,260.8-22.9,282.3-22.9s268.2,8.7,282.3,22.9s22.9,328.1,22.9,349.6
			s-8.7,335.5-22.9,349.6c-14.1,14.1-260.8,22.9-282.3,22.9S38.2,861.8,24,847.7C9.9,833.6,1.1,519.6,1.1,498.1S9.9,162.6,24,148.4z
			"/>
		<path class="st25" d="M24.8,152.9c14.6-14.6,259.4-23.6,281.6-23.6c22.2,0,267.1,9,281.6,23.6c14.6,14.6,23.6,326,23.6,348.2
			s-9,333.6-23.6,348.2c-14.6,14.6-259.4,23.6-281.6,23.6c-22.2,0-267.1-9-281.6-23.6c-14.6-14.6-23.6-326-23.6-348.2
			S10.2,167.5,24.8,152.9z"/>
		<path class="st26" d="M25.5,157.4c15-15,258-24.3,280.9-24.3c22.9,0,265.9,9.3,280.9,24.3s24.3,323.9,24.3,346.8
			c0,22.9-9.3,331.8-24.3,346.8c-15,15-258,24.3-280.9,24.3c-22.9,0-265.9-9.3-280.9-24.3c-15-15-24.3-323.9-24.3-346.8
			C1.2,481.3,10.5,172.4,25.5,157.4z"/>
		<path class="st26" d="M26.2,161.9c15.4-15.4,256.7-25,280.2-25c23.5,0,264.8,9.5,280.2,25s25,321.8,25,345.4s-9.5,329.9-25,345.4
			s-256.7,25-280.2,25c-23.5,0-264.8-9.5-280.2-25s-25-321.8-25-345.4S10.8,177.4,26.2,161.9z"/>
		<path class="st27" d="M26.9,166.4c15.8-15.8,255.3-25.7,279.5-25.7s263.6,9.8,279.5,25.7s25.7,319.7,25.7,343.9
			s-9.8,328.1-25.7,343.9c-15.8,15.8-255.3,25.7-279.5,25.7s-263.6-9.8-279.5-25.7C11.1,838.4,1.3,534.5,1.3,510.4
			S11.1,182.3,26.9,166.4z"/>
		<path class="st28" d="M27.7,170.9c16.3-16.3,253.9-26.3,278.8-26.3c24.8,0,262.5,10.1,278.8,26.3s26.3,317.7,26.3,342.5
			c0,24.8-10.1,326.2-26.3,342.5s-253.9,26.3-278.8,26.3c-24.8,0-262.5-10.1-278.8-26.3S1.3,538.3,1.3,513.4
			C1.3,488.6,11.4,187.2,27.7,170.9z"/>
		<path class="st28" d="M28.4,175.4c16.7-16.7,252.6-27,278-27c25.5,0,261.3,10.3,278,27s27,315.6,27,341.1
			c0,25.5-10.3,324.4-27,341.1c-16.7,16.7-252.6,27-278,27c-25.5,0-261.3-10.3-278-27c-16.7-16.7-27-315.6-27-341.1
			C1.4,491,11.7,192.1,28.4,175.4z"/>
		<path class="st29" d="M29.1,179.9c17.1-17.1,251.2-27.7,277.3-27.7c26.1,0,260.2,10.6,277.3,27.7s27.7,313.5,27.7,339.7
			c0,26.1-10.6,322.5-27.7,339.7S332.6,887,306.5,887c-26.1,0-260.2-10.6-277.3-27.7S1.4,545.7,1.4,519.6
			C1.4,493.4,12,197.1,29.1,179.9z"/>
		<path class="st30" d="M29.8,184.4C47.4,166.9,279.7,156,306.5,156s259,10.9,276.6,28.4s28.4,311.4,28.4,338.2
			c0,26.8-10.9,320.7-28.4,338.2c-17.6,17.6-249.8,28.4-276.6,28.4s-259-10.9-276.6-28.4C12.3,843.3,1.4,549.4,1.4,522.6
			C1.4,495.8,12.3,202,29.8,184.4z"/>
		<path class="st31" d="M30.6,188.9c18-18,248.4-29.1,275.9-29.1s257.9,11.1,275.9,29.1s29.1,309.3,29.1,336.8
			c0,27.5-11.1,318.8-29.1,336.8s-248.4,29.1-275.9,29.1S48.6,880.5,30.6,862.5S1.5,553.2,1.5,525.7
			C1.5,498.3,12.6,206.9,30.6,188.9z"/>
		<path class="st31" d="M31.3,193.4c18.4-18.4,247.1-29.8,275.2-29.8s256.8,11.4,275.2,29.8c18.4,18.4,29.8,307.3,29.8,335.4
			s-11.4,317-29.8,335.4C563.2,882.6,334.6,894,306.5,894S49.7,882.6,31.3,864.2C12.9,845.8,1.5,556.9,1.5,528.8
			S12.9,211.8,31.3,193.4z"/>
		<path class="st32" d="M32,197.9c18.8-18.8,245.7-30.5,274.5-30.5s255.6,11.7,274.5,30.5s30.5,305.2,30.5,334
			c0,28.8-11.7,315.1-30.5,334s-245.7,30.5-274.5,30.5S50.9,884.7,32,865.8S1.5,560.6,1.5,531.9C1.5,503.1,13.2,216.8,32,197.9z"/>
		<path class="st33" d="M32.8,202.4c19.3-19.3,244.3-31.2,273.7-31.2c29.4,0,254.5,11.9,273.7,31.2c19.3,19.3,31.2,303.1,31.2,332.5
			c0,29.4-11.9,313.3-31.2,332.5c-19.3,19.3-244.3,31.2-273.7,31.2c-29.4,0-254.5-11.9-273.7-31.2S1.6,564.4,1.6,534.9
			C1.6,505.5,13.5,221.7,32.8,202.4z"/>
		<path class="st34" d="M33.5,206.9c19.7-19.7,243-31.9,273-31.9c30.1,0,253.3,12.2,273,31.9s31.9,301,31.9,331.1
			c0,30.1-12.2,311.4-31.9,331.1s-243,31.9-273,31.9c-30.1,0-253.3-12.2-273-31.9S1.6,568.1,1.6,538
			C1.6,507.9,13.8,226.6,33.5,206.9z"/>
		<path class="st34" d="M34.2,211.4c20.1-20.1,241.6-32.6,272.3-32.6s252.2,12.5,272.3,32.6c20.1,20.1,32.6,299,32.6,329.7
			c0,30.7-12.5,309.5-32.6,329.7c-20.1,20.1-241.6,32.6-272.3,32.6S54.4,890.9,34.2,870.8c-20.1-20.1-32.6-299-32.6-329.7
			C1.6,510.4,14.1,231.5,34.2,211.4z"/>
		<path class="st35" d="M34.9,215.9c20.6-20.6,240.2-33.3,271.6-33.3s251,12.7,271.6,33.3s33.3,296.9,33.3,328.3
			s-12.7,307.7-33.3,328.3c-20.6,20.6-240.2,33.3-271.6,33.3S55.5,893,34.9,872.4C14.4,851.9,1.7,575.5,1.7,544.2
			S14.4,236.5,34.9,215.9z"/>
		<path class="st36" d="M35.7,220.4c21-21,238.8-34,270.9-34s249.9,13,270.9,34c21,21,34,294.8,34,326.8c0,32-13,305.8-34,326.8
			c-21,21-238.8,34-270.9,34s-249.9-13-270.9-34c-21-21-34-294.8-34-326.8C1.7,515.2,14.7,241.4,35.7,220.4z"/>
		<path class="st37" d="M36.4,224.9c21.4-21.4,237.5-34.7,270.2-34.7s248.7,13.2,270.2,34.7s34.7,292.7,34.7,325.4
			c0,32.7-13.2,304-34.7,325.4s-237.5,34.7-270.2,34.7S57.8,897.1,36.4,875.7S1.7,583,1.7,550.3C1.7,517.6,15,246.3,36.4,224.9z"/>
		<path class="st37" d="M37.1,229.4C59,207.6,273.2,194,306.6,194s247.6,13.5,269.4,35.4c21.8,21.8,35.4,290.6,35.4,324
			c0,33.3-13.5,302.1-35.4,324c-21.8,21.8-236.1,35.4-269.4,35.4S59,899.2,37.1,877.4S1.8,586.7,1.8,553.4
			C1.8,520,15.3,251.2,37.1,229.4z"/>
		<path class="st38" d="M37.9,233.9c22.3-22.3,234.7-36.1,268.7-36.1s246.5,13.8,268.7,36.1s36.1,288.6,36.1,322.6
			S597.6,856.7,575.3,879s-234.7,36.1-268.7,36.1S60.1,901.3,37.9,879S1.8,590.4,1.8,556.5S15.6,256.2,37.9,233.9z"/>
		<path class="st39" d="M38.6,238.4c22.7-22.7,233.4-36.7,268-36.7s245.3,14,268,36.7c22.7,22.7,36.7,286.5,36.7,321.1
			s-14,298.4-36.7,321.1c-22.7,22.7-233.4,36.7-268,36.7s-245.3-14-268-36.7S1.8,594.2,1.8,559.5S15.9,261.1,38.6,238.4z"/>
		<path class="st40" d="M39.3,242.9c23.1-23.1,232-37.4,267.3-37.4s244.2,14.3,267.3,37.4c23.1,23.1,37.4,284.4,37.4,319.7
			S597,859.2,573.9,882.3c-23.1,23.1-232,37.4-267.3,37.4S62.4,905.4,39.3,882.3C16.2,859.2,1.9,597.9,1.9,562.6
			S16.2,266,39.3,242.9z"/>
		<path class="st40" d="M40,247.4c23.6-23.6,230.6-38.1,266.6-38.1s243,14.6,266.6,38.1c23.6,23.6,38.1,282.3,38.1,318.3
			c0,36-14.6,294.7-38.1,318.3c-23.6,23.6-230.6,38.1-266.6,38.1S63.6,907.5,40,883.9C16.5,860.4,1.9,601.6,1.9,565.7
			C1.9,529.7,16.5,271,40,247.4z"/>
		<path class="st41" d="M40.8,251.9c24-24,229.3-38.8,265.9-38.8s241.9,14.8,265.9,38.8c24,24,38.8,280.2,38.8,316.9
			c0,36.6-14.8,292.9-38.8,316.9c-24,24-229.3,38.8-265.9,38.8S64.8,909.6,40.8,885.6c-24-24-38.8-280.2-38.8-316.9
			C1.9,532.1,16.8,275.9,40.8,251.9z"/>
		<path class="st42" d="M41.5,256.4c24.4-24.4,227.9-39.5,265.1-39.5s240.7,15.1,265.1,39.5c24.4,24.4,39.5,278.2,39.5,315.4
			s-15.1,291-39.5,315.4c-24.4,24.4-227.9,39.5-265.1,39.5S65.9,911.7,41.5,887.2S2,609.1,2,571.8S17.1,280.8,41.5,256.4z"/>
		<path class="st43" d="M42.2,260.9c24.8-24.8,226.5-40.2,264.4-40.2s239.6,15.4,264.4,40.2c24.8,24.8,40.2,276.1,40.2,314
			c0,37.9-15.4,289.2-40.2,314c-24.8,24.8-226.5,40.2-264.4,40.2S67.1,913.7,42.2,888.9S2,612.8,2,574.9
			C2,537,17.4,285.7,42.2,260.9z"/>
		<path class="st44" d="M43,265.4c25.3-25.3,225.1-40.9,263.7-40.9s238.4,15.6,263.7,40.9c25.3,25.3,40.9,274,40.9,312.6
			c0,38.6-15.6,287.3-40.9,312.6c-25.3,25.3-225.1,40.9-263.7,40.9S68.2,915.8,43,890.5S2,616.5,2,578C2,539.4,17.7,290.7,43,265.4z
			"/>
		<path class="st44" d="M43.7,269.9c25.7-25.7,223.8-41.6,263-41.6s237.3,15.9,263,41.6c25.7,25.7,41.6,271.9,41.6,311.2
			c0,39.2-15.9,285.5-41.6,311.2c-25.7,25.7-223.8,41.6-263,41.6s-237.3-15.9-263-41.6C18,866.5,2.1,620.3,2.1,581
			C2.1,541.8,18,295.6,43.7,269.9z"/>
		<path class="st45" d="M44.4,274.4c26.1-26.1,222.4-42.3,262.3-42.3s236.1,16.2,262.3,42.3c26.1,26.1,42.3,269.9,42.3,309.7
			c0,39.9-16.2,283.6-42.3,309.7c-26.1,26.1-222.4,42.3-262.3,42.3S70.5,920,44.4,893.8S2.1,624,2.1,584.1
			C2.1,544.2,18.3,300.5,44.4,274.4z"/>
		<path class="st46" d="M45.1,278.9c26.6-26.6,221-43,261.6-43s235,16.4,261.6,43c26.6,26.6,43,267.8,43,308.3s-16.4,281.7-43,308.3
			c-26.6,26.6-221,43-261.6,43s-235-16.4-261.6-43c-26.6-26.6-43-267.8-43-308.3S18.6,305.4,45.1,278.9z"/>
		<path class="st47" d="M45.9,283.4c27-27,219.7-43.7,260.8-43.7s233.9,16.7,260.8,43.7s43.7,265.7,43.7,306.9
			s-16.7,279.9-43.7,306.9s-219.7,43.7-260.8,43.7S72.9,924.1,45.9,897.1S2.2,631.4,2.2,590.3S18.9,310.4,45.9,283.4z"/>
		<path class="st48" d="M46.6,287.9c27.4-27.4,218.3-44.4,260.1-44.4s232.7,17,260.1,44.4c27.4,27.4,44.4,263.6,44.4,305.5
			s-17,278-44.4,305.5c-27.4,27.4-218.3,44.4-260.1,44.4S74,926.2,46.6,898.8C19.2,871.4,2.2,635.2,2.2,593.3S19.2,315.3,46.6,287.9
			z"/>
		<path class="st49" d="M47.3,292.4c27.8-27.8,216.9-45.1,259.4-45.1s231.6,17.2,259.4,45.1s45.1,261.5,45.1,304
			c0,42.5-17.2,276.2-45.1,304s-216.9,45.1-259.4,45.1S75.2,928.3,47.3,900.4S2.3,638.9,2.3,596.4C2.3,553.9,19.5,320.2,47.3,292.4z
			"/>
		<path class="st50" d="M48.1,296.9c28.3-28.3,215.6-45.8,258.7-45.8s230.4,17.5,258.7,45.8c28.3,28.3,45.8,259.5,45.8,302.6
			s-17.5,274.3-45.8,302.6c-28.3,28.3-215.6,45.8-258.7,45.8S76.3,930.4,48.1,902.1S2.3,642.6,2.3,599.5S19.8,325.1,48.1,296.9z"/>
		<path class="st50" d="M48.8,301.4c28.7-28.7,214.2-46.5,258-46.5s229.3,17.8,258,46.5c28.7,28.7,46.5,257.4,46.5,301.2
			S593.4,875,564.7,903.7s-214.2,46.5-258,46.5s-229.3-17.8-258-46.5S2.3,646.3,2.3,602.5S20.1,330.1,48.8,301.4z"/>
		<path class="st51" d="M49.5,305.9c29.1-29.1,212.8-47.1,257.3-47.1s228.1,18,257.3,47.1c29.1,29.1,47.1,255.3,47.1,299.8
			c0,44.5-18,270.6-47.1,299.8c-29.1,29.1-212.8,47.1-257.3,47.1s-228.1-18-257.3-47.1C20.4,876.2,2.4,650.1,2.4,605.6
			C2.4,561.2,20.4,335,49.5,305.9z"/>
		<path class="st52" d="M50.2,310.4c29.6-29.6,211.4-47.8,256.5-47.8s227,18.3,256.5,47.8c29.6,29.6,47.8,253.2,47.8,298.3
			c0,45.1-18.3,268.8-47.8,298.3c-29.6,29.6-211.4,47.8-256.5,47.8S79.8,936.6,50.2,907C20.7,877.5,2.4,653.8,2.4,608.7
			C2.4,563.6,20.7,339.9,50.2,310.4z"/>
		<path class="st53" d="M51,314.9c30-30,210.1-48.5,255.8-48.5s225.8,18.5,255.8,48.5c30,30,48.5,251.1,48.5,296.9
			c0,45.8-18.5,266.9-48.5,296.9c-30,30-210.1,48.5-255.8,48.5S80.9,938.7,51,908.7c-30-30-48.5-251.1-48.5-296.9
			C2.4,566,21,344.8,51,314.9z"/>
		<path class="st54" d="M51.7,319.4c30.4-30.4,208.7-49.2,255.1-49.2s224.7,18.8,255.1,49.2s49.2,249.1,49.2,295.5
			s-18.8,265.1-49.2,295.5s-208.7,49.2-255.1,49.2S82.1,940.7,51.7,910.3S2.5,661.2,2.5,614.8S21.3,349.8,51.7,319.4z"/>
		<path class="st55" d="M52.4,323.9c30.8-30.8,207.3-49.9,254.4-49.9s223.5,19.1,254.4,49.9c30.8,30.8,49.9,247,49.9,294.1
			S592,881.1,561.2,912c-30.8,30.8-207.3,49.9-254.4,49.9S83.3,942.8,52.4,912S2.5,665,2.5,617.9S21.6,354.7,52.4,323.9z"/>
		<path class="st55" d="M53.1,328.4c31.3-31.3,206-50.6,253.7-50.6s222.4,19.3,253.7,50.6s50.6,244.9,50.6,292.6
			s-19.3,261.4-50.6,292.6s-206,50.6-253.7,50.6S84.4,944.9,53.1,913.6S2.5,668.7,2.5,621S21.9,359.6,53.1,328.4z"/>
		<path class="st56" d="M53.9,332.9c31.7-31.7,204.6-51.3,253-51.3s221.3,19.6,253,51.3s51.3,242.8,51.3,291.2
			c0,48.4-19.6,259.5-51.3,291.2s-204.6,51.3-253,51.3S85.6,947,53.9,915.3S2.6,672.4,2.6,624.1C2.6,575.7,22.2,364.6,53.9,332.9z"
			/>
		<path class="st57" d="M54.6,337.4c32.1-32.1,203.2-52,252.2-52s220.1,19.9,252.2,52s52,240.8,52,289.8s-19.9,257.7-52,289.8
			c-32.1,32.1-203.2,52-252.2,52S86.7,949,54.6,916.9c-32.1-32.1-52-240.8-52-289.8S22.5,369.5,54.6,337.4z"/>
		<path class="st58" d="M55.3,341.8c32.6-32.6,201.8-52.7,251.5-52.7s219,20.1,251.5,52.7s52.7,238.7,52.7,288.4
			S590.9,886,558.4,918.6c-32.6,32.6-201.8,52.7-251.5,52.7s-219-20.1-251.5-52.7C22.8,886,2.6,679.9,2.6,630.2
			S22.8,374.4,55.3,341.8z"/>
		<path class="st59" d="M56.1,346.3c33-33,200.5-53.4,250.8-53.4s217.8,20.4,250.8,53.4s53.4,236.6,53.4,286.9
			s-20.4,253.9-53.4,286.9c-33,33-200.5,53.4-250.8,53.4S89,953.2,56.1,920.2c-33-33-53.4-236.6-53.4-286.9S23.1,379.3,56.1,346.3z"
			/>
		<path class="st60" d="M56.8,350.8c33.4-33.4,199.1-54.1,250.1-54.1s216.7,20.7,250.1,54.1s54.1,234.5,54.1,285.5
			c0,51-20.7,252.1-54.1,285.5s-199.1,54.1-250.1,54.1S90.2,955.3,56.8,921.9S2.7,687.3,2.7,636.3C2.7,585.4,23.4,384.3,56.8,350.8z
			"/>
		<path class="st61" d="M57.5,355.3c33.8-33.8,197.7-54.8,249.4-54.8s215.5,20.9,249.4,54.8S611,587.8,611,639.4
			c0,51.6-20.9,250.2-54.8,284.1s-197.7,54.8-249.4,54.8S91.4,957.3,57.5,923.5S2.7,691.1,2.7,639.4
			C2.7,587.8,23.7,389.2,57.5,355.3z"/>
		<path class="st62" d="M58.2,359.8c34.3-34.3,196.4-55.5,248.7-55.5s214.4,21.2,248.7,55.5S611,590.2,611,642.5
			c0,52.3-21.2,248.4-55.5,282.7s-196.4,55.5-248.7,55.5S92.5,959.4,58.2,925.1S2.8,694.8,2.8,642.5C2.8,590.2,24,394.1,58.2,359.8z
			"/>
		<path class="st63" d="M59,364.3c34.7-34.7,195-56.2,247.9-56.2s213.2,21.5,247.9,56.2S611,592.6,611,645.6s-21.5,246.5-56.2,281.2
			c-34.7,34.7-195,56.2-247.9,56.2S93.7,961.5,59,926.8C24.3,892.1,2.8,698.5,2.8,645.6S24.3,399,59,364.3z"/>
		<path class="st64" d="M59.7,368.8C94.8,333.7,253.3,312,306.9,312s212.1,21.7,247.2,56.9S611,595,611,648.6
			s-21.7,244.7-56.9,279.8s-193.6,56.9-247.2,56.9S94.8,963.6,59.7,928.4S2.8,702.2,2.8,648.6S24.6,404,59.7,368.8z"/>
		<path class="st65" d="M60.4,373.3c35.6-35.6,192.3-57.5,246.5-57.5s211,22,246.5,57.5S611,597.5,611,651.7
			c0,54.3-22,242.8-57.5,278.4c-35.6,35.6-192.3,57.5-246.5,57.5s-211-22-246.5-57.5C24.9,894.5,2.9,706,2.9,651.7
			C2.9,597.5,24.9,408.9,60.4,373.3z"/>
		<path class="st66" d="M61.2,377.8c36-36,190.9-58.2,245.8-58.2s209.8,22.3,245.8,58.2s58.2,222,58.2,277s-22.3,241-58.2,277
			S361.9,990,306.9,990S97.1,967.7,61.2,931.7s-58.2-222-58.2-277S25.2,413.8,61.2,377.8z"/>
		<path class="st67" d="M61.9,382.3c36.4-36.4,189.5-58.9,245.1-58.9s208.7,22.5,245.1,58.9c36.4,36.4,58.9,220,58.9,275.5
			S588.4,897,552,933.4c-36.4,36.4-189.5,58.9-245.1,58.9S98.3,969.8,61.9,933.4C25.5,897,2.9,713.4,2.9,657.9
			S25.5,418.7,61.9,382.3z"/>
		<path class="st68" d="M62.6,386.8C99.5,350,250.8,327.2,307,327.2s207.5,22.8,244.4,59.6S611,604.7,611,660.9
			S588.2,898.2,551.3,935S363.2,994.7,307,994.7S99.5,971.9,62.6,935S3,717.2,3,660.9S25.8,423.7,62.6,386.8z"/>
		<path class="st69" d="M63.3,391.3C100.6,354.1,250.1,331,307,331s206.4,23.1,243.6,60.3c37.3,37.3,60.3,215.8,60.3,272.7
			s-23.1,235.4-60.3,272.7C513.4,974,363.9,997,307,997S100.6,974,63.3,936.7C26.1,899.4,3,720.9,3,664S26.1,428.6,63.3,391.3z"/>
		<path class="st70" d="M64.1,395.8c37.7-37.7,185.4-61,242.9-61s205.2,23.3,242.9,61s61,213.7,61,271.3c0,57.5-23.3,233.6-61,271.3
			s-185.4,61-242.9,61s-205.2-23.3-242.9-61s-61-213.7-61-271.3C3.1,609.6,26.4,433.5,64.1,395.8z"/>
		<path class="st71" d="M64.8,400.3c38.1-38.1,184-61.7,242.2-61.7s204.1,23.6,242.2,61.7s61.7,211.7,61.7,269.8
			c0,58.2-23.6,231.7-61.7,269.8c-38.1,38.1-184,61.7-242.2,61.7S102.9,978.1,64.8,940C26.7,901.9,3.1,728.3,3.1,670.2
			C3.1,612,26.7,438.4,64.8,400.3z"/>
		<path class="st72" d="M65.5,404.8c38.6-38.6,182.7-62.4,241.5-62.4s202.9,23.8,241.5,62.4s62.4,209.6,62.4,268.4
			c0,58.8-23.8,229.8-62.4,268.4C510,980.2,365.8,1004,307,1004s-202.9-23.8-241.5-62.4C27,903.1,3.1,732.1,3.1,673.2
			C3.1,614.4,27,443.4,65.5,404.8z"/>
		<path class="st73" d="M66.3,409.3c39-39,181.3-63.1,240.8-63.1s201.8,24.1,240.8,63.1c39,39,63.1,207.5,63.1,267
			c0,59.5-24.1,228-63.1,267c-39,39-181.3,63.1-240.8,63.1s-201.8-24.1-240.8-63.1c-39-39-63.1-207.5-63.1-267
			C3.2,616.8,27.3,448.3,66.3,409.3z"/>
		<path class="st74" d="M67,413.8C106.4,374.4,246.9,350,307,350s200.6,24.4,240.1,63.8s63.8,205.4,63.8,265.6
			c0,60.1-24.4,226.1-63.8,265.6s-179.9,63.8-240.1,63.8S106.4,984.3,67,944.9S3.2,739.5,3.2,679.4C3.2,619.2,27.6,453.2,67,413.8z"
			/>
		<path class="st75" d="M67.7,418.3c39.8-39.8,178.5-64.5,239.3-64.5s199.5,24.6,239.3,64.5c39.8,39.8,64.5,203.3,64.5,264.1
			c0,60.8-24.6,224.3-64.5,264.1c-39.8,39.8-178.5,64.5-239.3,64.5s-199.5-24.6-239.3-64.5S3.2,743.2,3.2,682.4
			C3.2,621.7,27.9,458.2,67.7,418.3z"/>
		<path class="st76" d="M68.4,422.8c40.3-40.3,177.2-65.2,238.6-65.2s198.4,24.9,238.6,65.2s65.2,201.3,65.2,262.7
			S585.9,908,545.7,948.2s-177.2,65.2-238.6,65.2s-198.4-24.9-238.6-65.2S3.3,747,3.3,685.5S28.2,463.1,68.4,422.8z"/>
		<path class="st77" d="M69.2,427.3c40.7-40.7,175.8-65.9,237.9-65.9s197.2,25.2,237.9,65.9c40.7,40.7,65.9,199.2,65.9,261.3
			S585.7,909.2,545,949.9c-40.7,40.7-175.8,65.9-237.9,65.9s-197.2-25.2-237.9-65.9C28.5,909.2,3.3,750.7,3.3,688.6
			S28.5,468,69.2,427.3z"/>
		<path class="st78" d="M69.9,431.8c41.1-41.1,174.4-66.6,237.2-66.6s196.1,25.4,237.2,66.6s66.6,197.1,66.6,259.9
			s-25.4,218.7-66.6,259.9c-41.1,41.1-174.4,66.6-237.2,66.6S111,992.6,69.9,951.5C28.8,910.4,3.3,754.4,3.3,691.7
			S28.8,472.9,69.9,431.8z"/>
		<path class="st79" d="M70.6,436.3c41.6-41.6,173.1-67.3,236.5-67.3s194.9,25.7,236.5,67.3c41.6,41.6,67.3,195,67.3,258.4
			s-25.7,216.9-67.3,258.4c-41.6,41.6-173.1,67.3-236.5,67.3s-194.9-25.7-236.5-67.3c-41.6-41.6-67.3-195-67.3-258.4
			S29.1,477.9,70.6,436.3z"/>
		<path class="st80" d="M71.3,440.8c42-42,171.7-67.9,235.8-67.9s193.8,26,235.8,67.9s67.9,192.9,67.9,257s-26,215-67.9,257
			c-42,42-171.7,67.9-235.8,67.9s-193.8-26-235.8-67.9c-42-42-67.9-192.9-67.9-257S29.4,482.8,71.3,440.8z"/>
		<path class="st81" d="M72.1,445.3c42.4-42.4,170.3-68.6,235-68.6s192.6,26.2,235,68.6c42.4,42.4,68.6,190.9,68.6,255.6
			s-26.2,213.2-68.6,255.6c-42.4,42.4-170.3,68.6-235,68.6s-192.6-26.2-235-68.6S3.4,765.6,3.4,700.9S29.7,487.7,72.1,445.3z"/>
		<path class="st82" d="M72.8,449.8c42.8-42.8,169-69.3,234.3-69.3s191.5,26.5,234.3,69.3c42.8,42.8,69.3,188.8,69.3,254.2
			s-26.5,211.3-69.3,254.2c-42.8,42.8-169,69.3-234.3,69.3s-191.5-26.5-234.3-69.3S3.5,769.3,3.5,704S30,492.6,72.8,449.8z"/>
		<path class="st83" d="M73.5,454.3c43.3-43.3,167.6-70,233.6-70s190.3,26.8,233.6,70c43.3,43.3,70,186.7,70,252.7
			s-26.8,209.5-70,252.7c-43.3,43.3-167.6,70-233.6,70s-190.3-26.8-233.6-70S3.5,773.1,3.5,707S30.3,497.6,73.5,454.3z"/>
		<path class="st84" d="M74.3,458.8c43.7-43.7,166.2-70.7,232.9-70.7s189.2,27,232.9,70.7c43.7,43.7,70.7,184.6,70.7,251.3
			s-27,207.6-70.7,251.3c-43.7,43.7-166.2,70.7-232.9,70.7s-189.2-27-232.9-70.7C30.6,917.7,3.5,776.8,3.5,710.1
			S30.6,502.5,74.3,458.8z"/>
		<path class="st85" d="M75,463.3c44.1-44.1,164.8-71.4,232.2-71.4s188,27.3,232.2,71.4c44.1,44.1,71.4,182.5,71.4,249.9
			s-27.3,205.8-71.4,249.9c-44.1,44.1-164.8,71.4-232.2,71.4s-188-27.3-232.2-71.4S3.6,780.5,3.6,713.2S30.9,507.4,75,463.3z"/>
		<path class="st86" d="M75.7,467.8c44.6-44.6,163.5-72.1,231.5-72.1s186.9,27.6,231.5,72.1c44.6,44.6,72.1,180.5,72.1,248.5
			s-27.6,203.9-72.1,248.5c-44.6,44.6-163.5,72.1-231.5,72.1s-186.9-27.6-231.5-72.1C31.2,920.2,3.6,784.2,3.6,716.2
			S31.2,512.3,75.7,467.8z"/>
		<path class="st87" d="M76.4,472.3c45-45,162.1-72.8,230.7-72.8s185.8,27.8,230.7,72.8s72.8,178.4,72.8,247s-27.8,202-72.8,247
			s-162.1,72.8-230.7,72.8s-185.8-27.8-230.7-72.8S3.6,788,3.6,719.3S31.5,517.3,76.4,472.3z"/>
		<path class="st88" d="M77.2,476.8c45.4-45.4,160.7-73.5,230-73.5s184.6,28.1,230,73.5c45.4,45.4,73.5,176.3,73.5,245.6
			S582.6,922.6,537.2,968c-45.4,45.4-160.7,73.5-230,73.5s-184.6-28.1-230-73.5C31.8,922.6,3.7,791.7,3.7,722.4
			S31.8,522.2,77.2,476.8z"/>
		<path class="st89" d="M77.9,481.3c45.8-45.8,159.4-74.2,229.3-74.2s183.5,28.4,229.3,74.2s74.2,174.2,74.2,244.2
			s-28.4,198.3-74.2,244.2s-159.4,74.2-229.3,74.2s-183.5-28.4-229.3-74.2S3.7,795.4,3.7,725.5S32.1,527.1,77.9,481.3z"/>
		<path class="st90" d="M78.6,485.8c46.3-46.3,158-74.9,228.6-74.9s182.3,28.6,228.6,74.9c46.3,46.3,74.9,172.2,74.9,242.8
			S582.1,925,535.8,971.3c-46.3,46.3-158,74.9-228.6,74.9s-182.3-28.6-228.6-74.9C32.4,925,3.7,799.1,3.7,728.5
			S32.4,532.1,78.6,485.8z"/>
		<path class="st91" d="M79.4,490.3c46.7-46.7,156.6-75.6,227.9-75.6s181.2,28.9,227.9,75.6s75.6,170.1,75.6,241.3
			s-28.9,194.6-75.6,241.3s-156.6,75.6-227.9,75.6S126,1019.6,79.4,972.9S3.8,802.9,3.8,731.6S32.7,537,79.4,490.3z"/>
		<path class="st92" d="M80.1,494.8c47.1-47.1,155.3-76.3,227.2-76.3s180,29.1,227.2,76.3c47.1,47.1,76.3,168,76.3,239.9
			s-29.1,192.8-76.3,239.9c-47.1,47.1-155.3,76.3-227.2,76.3s-180-29.1-227.2-76.3C33,927.5,3.8,806.6,3.8,734.7
			S33,541.9,80.1,494.8z"/>
		<path class="st93" d="M80.8,499.3c47.5-47.5,153.9-77,226.4-77s178.9,29.4,226.4,77c47.5,47.5,77,165.9,77,238.5
			s-29.4,190.9-77,238.5c-47.5,47.5-153.9,77-226.4,77s-178.9-29.4-226.4-77c-47.5-47.5-77-165.9-77-238.5S33.3,546.8,80.8,499.3z"
			/>
		<path class="st94" d="M81.5,503.8c48-48,152.5-77.7,225.7-77.7S485,455.8,533,503.8s77.7,163.8,77.7,237.1S581,929.9,533,977.9
			c-48,48-152.5,77.7-225.7,77.7s-177.7-29.7-225.7-77.7c-48-48-77.7-163.8-77.7-237.1S33.6,551.8,81.5,503.8z"/>
		<path class="st95" d="M82.3,508.3c48.4-48.4,151.1-78.3,225-78.3s176.6,29.9,225,78.3s78.3,161.8,78.3,235.6
			s-29.9,187.2-78.3,235.6c-48.4,48.4-151.1,78.3-225,78.3s-176.6-29.9-225-78.3C33.9,931.1,3.9,817.8,3.9,743.9
			S33.9,556.7,82.3,508.3z"/>
		<path class="st96" d="M83,512.8c48.8-48.8,149.8-79,224.3-79s175.5,30.2,224.3,79s79,159.7,79,234.2s-30.2,185.4-79,234.2
			c-48.8,48.8-149.8,79-224.3,79S131.8,1030,83,981.2C34.2,932.3,4,821.5,4,747S34.2,561.6,83,512.8z"/>
		<path class="st97" d="M83.7,517.3c49.3-49.3,148.4-79.7,223.6-79.7s174.3,30.5,223.6,79.7s79.7,157.6,79.7,232.8
			s-30.5,183.5-79.7,232.8s-148.4,79.7-223.6,79.7S133,1032.1,83.7,982.8S4,825.2,4,750.1S34.5,566.5,83.7,517.3z"/>
		<path class="st98" d="M84.5,521.8c49.7-49.7,147-80.4,222.9-80.4s173.2,30.7,222.9,80.4s80.4,155.5,80.4,231.4
			s-30.7,181.7-80.4,231.4s-147,80.4-222.9,80.4s-173.2-30.7-222.9-80.4S4,829,4,753.1S34.8,571.5,84.5,521.8z"/>
		<path class="st99" d="M85.2,526.3c50.1-50.1,145.7-81.1,222.1-81.1s172,31,222.1,81.1s81.1,153.4,81.1,229.9s-31,179.8-81.1,229.9
			c-50.1,50.1-145.7,81.1-222.1,81.1s-172-31-222.1-81.1C35.1,936,4.1,832.7,4.1,756.2S35.1,576.4,85.2,526.3z"/>
		<path class="st100" d="M85.9,530.8c50.5-50.5,144.3-81.8,221.4-81.8s170.9,31.3,221.4,81.8s81.8,151.4,81.8,228.5
			s-31.3,178-81.8,228.5c-50.5,50.5-144.3,81.8-221.4,81.8s-170.9-31.3-221.4-81.8C35.4,937.2,4.1,836.4,4.1,759.3
			S35.4,581.3,85.9,530.8z"/>
		<path class="st101" d="M86.6,535.3c51-51,142.9-82.5,220.7-82.5s169.7,31.5,220.7,82.5s82.5,149.3,82.5,227.1S579,938.4,528,989.4
			c-51,51-142.9,82.5-220.7,82.5s-169.7-31.5-220.7-82.5c-51-51-82.5-149.3-82.5-227.1S35.7,586.2,86.6,535.3z"/>
		<path class="st102" d="M87.4,539.8c51.4-51.4,141.5-83.2,220-83.2s168.6,31.8,220,83.2s83.2,147.2,83.2,225.7
			s-31.8,174.2-83.2,225.7c-51.4,51.4-141.5,83.2-220,83.2s-168.6-31.8-220-83.2C36,939.7,4.2,843.9,4.2,765.4S36,591.2,87.4,539.8z
			"/>
		<path class="st103" d="M88.1,544.3c51.8-51.8,140.2-83.9,219.3-83.9s167.4,32.1,219.3,83.9s83.9,145.1,83.9,224.2
			s-32.1,172.4-83.9,224.2s-140.2,83.9-219.3,83.9s-167.4-32.1-219.3-83.9S4.2,847.6,4.2,768.5S36.3,596.1,88.1,544.3z"/>
		<path class="st104" d="M88.8,548.8c52.3-52.3,138.8-84.6,218.6-84.6s166.3,32.3,218.6,84.6c52.3,52.3,84.6,143.1,84.6,222.8
			s-32.3,170.5-84.6,222.8S387.1,1079,307.4,1079s-166.3-32.3-218.6-84.6S4.2,851.3,4.2,771.6S36.6,601,88.8,548.8z"/>
		<path class="st105" d="M89.5,553.3C142.2,500.6,227,468,307.4,468s165.1,32.6,217.8,85.3c52.7,52.7,85.3,141,85.3,221.4
			S577.9,943.3,525.2,996s-137.4,85.3-217.8,85.3S142.2,1048.7,89.5,996S4.3,855,4.3,774.6S36.9,605.9,89.5,553.3z"/>
		<path class="st106" d="M90.3,557.8c53.1-53.1,136.1-86,217.1-86s164,32.9,217.1,86s86,138.9,86,220s-32.9,166.8-86,220
			c-53.1,53.1-136.1,86-217.1,86s-164-32.9-217.1-86c-53.1-53.1-86-138.9-86-220S37.2,610.9,90.3,557.8z"/>
		<path class="st107" d="M91,562.3c53.5-53.5,134.7-86.7,216.4-86.7s162.9,33.1,216.4,86.7c53.5,53.5,86.7,136.8,86.7,218.5
			s-33.1,165-86.7,218.5c-53.5,53.5-134.7,86.7-216.4,86.7S144.6,1052.9,91,999.3C37.5,945.8,4.3,862.5,4.3,780.8
			S37.5,615.8,91,562.3z"/>
		<path class="st108" d="M91.7,566.8c54-54,133.3-87.4,215.7-87.4s161.7,33.4,215.7,87.4s87.4,134.7,87.4,217.1
			S577.1,947,523.1,1001c-54,54-133.3,87.4-215.7,87.4s-161.7-33.4-215.7-87.4c-54-54-87.4-134.7-87.4-217.1S37.8,620.7,91.7,566.8z
			"/>
		<path class="st109" d="M92.5,571.2c54.4-54.4,132-88.1,215-88.1s160.6,33.6,215,88.1c54.4,54.4,88.1,132.7,88.1,215.7
			s-33.6,161.3-88.1,215.7s-132,88.1-215,88.1s-160.6-33.6-215-88.1S4.4,869.9,4.4,786.9S38.1,625.7,92.5,571.2z"/>
		<path class="st110" d="M610.4,790c0,83.7-33.9,159.4-88.7,214.3S391.1,1093,307.4,1093s-159.4-33.9-214.3-88.7S4.4,873.7,4.4,790
			s33.9-159.4,88.7-214.3S223.8,487,307.4,487s159.4,33.9,214.3,88.7S610.4,706.3,610.4,790z"/>
	</g>
</g>
<g id="clouds">
	<path class="st111" d="M203.7,456.4H284c0,0,0.8-9.8-11.7-14.7c0,0,3.5-5.8,0.2-9.7c-3.3-3.8-30.5,3.2-30.5,3.2s-7.3-12.3-11.7-7.8
		c-4.3,4.5-7.2,9.3-7.8,13c-0.7,3.7-16.2,1-16.2,1S195,440.6,203.7,456.4z"/>
	<path class="st111" d="M146.1,104.7h160.5c0,0,1.7-19.7-23.3-29.3c0,0,7-11.7,0.3-19.3s-61,6.3-61,6.3s-14.7-24.7-23.3-15.7
		c-8.7,9-14.3,18.7-15.7,26c-1.3,7.3-32.3,2-32.3,2S128.6,73,146.1,104.7z"/>
	<path class="st111" d="M482.3,155h229.4c0,0-37.9-22-33.2-41.2c4.6-19.2,6.2-48.5-13.9-44.8c-20.1,3.7-61.8-4.6-61.8-4.6
		s-66.4-27.4-51.8,8.3s-3.9,28.4-3.9,28.4s-39.4-27.5-52.5-0.9s0.8,34.8,0.8,34.8S483.1,143.1,482.3,155z"/>
	<path class="st111" d="M-7,288.7h198c0,0-32.7-16-28.7-30c4-14,5.3-35.3-12-32.7S97,222.7,97,222.7s-57.3-20-44.7,6
		S49,249.3,49,249.3s-34-20-45.3-0.7S4.3,274,4.3,274S-6.3,280-7,288.7z"/>
</g>
<g id="bridge__trace">
	<path d="M171.1,692.1l197.3,43.4l0.6,22.3l-1,2.4v20l-1,2.8l-0.1,8.1l58.2,0.9l5.1-0.6h3.6l5.8-0.2v-9.4l-0.9-1.6l0.1-22l-1.2-4
		l0.4-4.2c0,0,42.1,10.3,46.2,12.4l4.8,0.2c0,0,19.7,6.6,20.6,8.5l-0.3,1.3l0.9,0.6l0.3,19H534v-11l4.7-0.7l0.1-1.4l0.8-1.6
		c0,0-4.4-3.8-5.1-4l-0.1-0.5l0.5-0.2l-0.1-1.7h-1.2l-0.2-19.1l1.2-1.6l-23.8,0.9l0.8,1.5l0.1,5.4c0,0-52.1-25-70.6-32l-1.3-1.6
		l0-0.9l0.4-0.1v-0.9l-2.9-1.2c0,0,0.3-9.3-0.8-10.2l0.3-25.6c0,0,0.1-4.6-0.6-5.6l0.3-28.8c0,0,0.7-4.2,3.4-4.8l0.7-0.2l0.1-1.5
		l-2.3-2.1l-0.1-1.1l2.2-1.1l0.2-0.9l-5.5-6.2l-3.4,1.4l-4.1-4.7l-11.4,5.2l1.9,3l-0.2,0.6c0,0-13.1,5.1-14.8,6.2l-3.2-3l-10.1,4.5
		l2.1,2.9l-12.6,5l-2.9-2l-8.6,3.6l1.9,2.5l0.3,1.1l0.2,1.7l1.1,1.2l0.1,5.2l0.2,23.1l-0.9,2.2l-0.1,12.3l-150-55L171.1,692.1z"/>
	<path class="st110" d="M393.3,678.2l-4.8,9.7v8.9l0.6,2.2l-0.1,11.5l-0.5,1.5l1,1.6c0,0,1.2,0.1,1.8,0c0.6-0.1,1.9-0.5,1.9-0.5
		l0.6-35H393.3z"/>
	<path class="st110" d="M410.4,680.1l5.8-10.6c0,0,3.8,2.7,2.6,8.3l-0.6,29.9l-0.9,2.7l-0.1,7.5l-0.5,2.5l-5.5-1.9l-0.7-39.1V680.1z
		"/>
	<path class="st110" d="M523.7,765v-5.6l2.9-3.6l2.7,3.3l-0.2,10.3C529.2,769.3,525.6,766,523.7,765z"/>
	<path class="st110" d="M518.5,756.4l1.7,1.8l0.5,5.2c0,0-2.8-2.5-4.8-3.1v-1.2L518.5,756.4z"/>
	<path class="st112" d="M436.7,654.5c0,0,46,89.6,60.1,96.3"/>
	<path class="st112" d="M437,696.3c0,0,33.3,42.2,36.7,43.7"/>
	<path class="st112" d="M436.7,700.8c0,0,22.8,31.2,29,35.6"/>
	<g>
		<path class="st112" d="M416.3,635.6c-4.4,0-8.7-0.3-13-0.7c-4.3-0.4-8.6-0.9-12.9-1.5c-4.3-0.6-8.6-1.2-12.8-2
			c-4.3-0.7-8.5-1.4-12.7-2.3c-4.2-0.8-8.5-1.7-12.7-2.6c-4.2-0.9-8.4-1.8-12.6-2.9l-12.6-3.1c-4.2-1.1-8.3-2.2-12.5-3.3l-6.2-1.7
			l-6.2-1.8l-12.4-3.6c-8.3-2.5-16.5-5.2-24.7-7.8c-8.2-2.8-16.3-5.6-24.4-8.5c-4-1.5-8.1-3.1-12.1-4.6c-4-1.5-8.1-3.1-12.1-4.7
			l0.3-0.9c4.1,1.2,8.3,2.5,12.4,3.8c4.1,1.3,8.2,2.5,12.3,3.9l24.7,7.6l24.7,7.4l12.4,3.6l6.2,1.8l6.2,1.7
			c16.6,4.7,33.2,8.9,50,12.6c8.4,1.9,16.8,3.6,25.3,5.1c4.2,0.7,8.5,1.5,12.7,2c4.2,0.6,8.5,1.2,12.8,1.4L416.3,635.6z"/>
	</g>
	<g>
		<path d="M391.8,649.7c-14.5-1.7-28.9-3.8-43.2-6.3c-14.3-2.5-28.6-5.3-42.8-8.5c-14.2-3.3-28.3-6.8-42.2-11.2
			c-13.9-4.4-27.6-9.4-40.8-15.7l0.4-0.9c13.4,5.6,27.1,10.3,41,14.5l10.4,3c3.5,1,7,1.9,10.5,2.8c1.8,0.4,3.5,0.9,5.3,1.4l5.3,1.3
			c3.5,0.8,7,1.8,10.6,2.6l10.6,2.4l10.7,2.2c3.5,0.8,7.1,1.4,10.7,2.2c3.6,0.7,7.1,1.4,10.7,2.1c3.6,0.7,7.1,1.3,10.7,2l10.7,1.9
			c7.2,1.2,14.3,2.4,21.5,3.4L391.8,649.7z"/>
	</g>
	<g>
		<path d="M369.9,658.7c-0.4,0.2-0.6,0.2-0.8,0.3c-0.3,0.1-0.5,0.1-0.8,0.2c-0.5,0.1-1,0.2-1.5,0.2c-1,0.1-2,0.2-3,0.2
			c-1,0-2,0.1-3,0.1l-3-0.1c-2,0-4-0.2-6-0.3c-2-0.1-4-0.3-5.9-0.4c-4-0.3-7.9-0.8-11.8-1.2c-3.9-0.4-7.9-1-11.8-1.5
			c-15.7-2.1-31.3-4.8-46.9-7.7l-11.7-2.1L252,644l-11.7-2.3l-11.6-2.4c-15.5-3.3-30.9-6.8-46.4-10.4l0.2-1c15.6,3,31,6.2,46.6,9.2
			l11.6,2.4l11.7,2.2l11.7,2.3l11.7,2.2c15.5,3,31.2,5.6,46.8,8c7.8,1.2,15.7,2.2,23.5,3.1c2,0.2,3.9,0.4,5.9,0.6
			c2,0.1,3.9,0.4,5.9,0.4l3,0.1c1,0,2,0,2.9,0c1,0,2-0.1,2.9-0.1c0.5,0,1-0.1,1.4-0.2c0.2,0,0.5-0.1,0.7-0.1
			c0.2-0.1,0.5-0.1,0.6-0.2L369.9,658.7z"/>
	</g>
</g>
<g id="world_trade_centre_trace">
	<path d="M527.3,794l8.6-339.2l8.4-4.7l0.6-8.2c0,0,2.2-5.1,13-6.1c0,0,2.7-0.2,3.6-0.3c0,0-0.1-0.9,1-1.1l0.8-4.8
		c0,0-1.4-1-0.8-1.5c0.5-0.5,0.8-0.4,0.8-0.4l0.1-0.8c0,0-1.2-0.9-0.6-2c0,0,0.5-0.4,0.7-0.5l0.1-2.3l-1.8-2.1l-0.1-3.1
		c0,0,0-1,1.7-1l0-1.5c0,0-1.3-0.6-0.9-1.6s1-1.1,1-1.1l0.1-2.4c0,0-1.3-0.4-1-1.6l-0.6-0.5c0,0,0.1-1.1,1.5-1.4l0.1-1.8
		c0,0-2-1.5,0-2.4l0.1-2.4c0,0-1.3-0.6-1.2-1.7v-0.4l-0.4-0.3c0,0,0.1-1,1.5-1.4l0.4-0.1l-0.1-7.8c0,0-2.2-0.8-1.3-1.7
		c0,0,0.4-0.7,1.4-0.9l0.1-7.6c0,0-1.3-0.2-1.3-0.9s0.6-1,1.3-1v-8.3c0,0-1.6-0.9-1-1.4c0,0,0.5-0.5,1.2-0.5V359c0,0-1-0.6-0.4-1.2
		l0.4-0.1l-0.1-0.7c0,0-0.6-0.6-0.5-1.1l0.8-7.6l0.2,0v-0.5c0,0-0.5-0.9,0-1.3c0.5-0.4,0.6,1,0.4,1.3v0.4l0,0.1h0.3l0.8,8l-0.6,0.8
		l-0.1,0.7c0,0,1.4,0.6,0,1.3v6.3c0,0,2.1,0.6,0,2l0.2,8.2c0,0,2.5,0.8-0.1,2.1l0.1,7.7c0,0,3.5,1.3,0,2.5l0.1,7.8
		c0,0,2.3,0.6,1.8,1.3l-0.5,0.5l0.1,0.5c0,0,0.3,1.2-1,1.5v2.3c0,0,2.2,1.5,0.1,2.6l-0.2,1.7c0,0,1.7,0,1.7,1l-0.4,0.8
		c0,0,0.1,1.5-1.2,1.9l0.3,2.8c0,0,1.9,1.4-0.2,1.9l-0.1,1.7c0,0,1.7,0,1.9,1.1v2.7l-1.7,2.3l-0.1,2.3c0,0,1.8,1.6,0.1,2.9l0,0.6
		c0,0,1.6,0.8,0.1,1.8l0.7,4.3c0,0,1.5,0.8,1.3,1.7c0,0,14.3,0.8,16.3,6.8l0.7,6.7l3.6,1.1l4.9,1.5L603.8,794H527.3z"/>
	<polygon class="st113" points="563.8,447.5 527.3,794 603.8,794 	"/>
</g>
<g id="statue_of_liberty_trace">
	<path d="M134.3,793.5v-2.3h132.7l3.1-3.6V781v-2.1l-8.1-3.5V773l-1.9-1.2l0.1-3h-2v-5.3H254v-8.3l2.6-7.4c0,0,0.5-1.3-0.7-1.6v-4
		l-2.4-0.9l-1.9-26.9l6.6-30.2l-0.1-11.9c0,0-3.5-1.9-4.3,0l-0.1,1.9l-5.5-0.1l0.3-2.8l-2.6-1.7l0-4.4l1.5-8.5l-4.1-1.8l0.1-7
		l-4.5-1.7h-3.1h-0.9v-16.6l1.9-3.1v-14.6l3.1-10.1l0.1-4.7l-1.1-4l-0.2-5.7l-0.9-2.5c0,0-0.4-0.2,0.2-1l0-2.6c0,0-1.2-1.1-0.1-2.3
		l0.1-5l-1.8-8l4.1-0.2c0,0,2.6-1.5,3.1-3.6s2.7-7.3,2.9-20.8l2.2-2.6h2.5c0,0,1.8-0.1,1.5-1.6c-0.3-1.5,1.1-1.3,1.1-1.3l7.2-7.7
		l-1.9-4.2l3.4-4.2c0,0,0.4-0.7-0.6-1.1l1.8-1.5l-1.7-2.5l-18.2,1.8l-0.2,1.9l-2,0.1l-6.8,9.2c0,0-1.3,0.8-2.9-1.6l-3-14.3
		c0,0-6.2-13.6-9.4-15.4c0,0-1.7-3.2-4.6-4.8l-1.1-2l-0.1-2.5c0,0,2.5,0.3,1.4-1.8c-1-2.1-3-7.1-3-7.1l0.2-9.2c0,0,1.6-0.1,1.7-3.2
		l0.7-1.1l15.1,0.3c0,0,1.5-0.3-0.6-0.8c-2.2-0.5-13.9-2.9-13.9-2.9l-0.5-3.9l0-0.9l15.9-7.1c0,0,1.6-1.2-0.9-0.8
		c-2.5,0.4-16.4,4.6-16.4,4.6s-1.4-1.9-2.4-2.6l10.1-15.9c0,0,0.1-1.1-1,0c-1.1,1.1-11.8,13.6-11.8,13.6s-1.7-0.9-3-0.7l-0.7-0.1
		l0.3-18.4c0,0-0.3-1-0.7,0.1l-3,18.4c0,0-2.5,0-2.9,0.4L188,432.2c0,0-0.7-0.8-0.4,0.6l7.1,17.2c0,0-1.5,1-2.1,1.9l-14.8-6.8
		c0,0-1.1-6.1-3.4-13c0,0-1.2-7.7-1.8-9.5c-0.6-1.7-0.4-6.7-0.4-6.7s1.4-2.5,1-6.9c0,0,0.6-8.9-2.9-11.8c0,0,6.5-1.8,7-5.3
		c0.5-3.5,0.2-3.1-0.4-3.7c-0.5-0.6,0-3,0-3s0.9-1.4-0.7-2.2l0.3-1.3l-0.9-0.3l-0.2,0.4l-1.4-1.2l0.3-0.9l-0.9-0.5l-0.3,0.6
		l-1.7-0.1l-0.1-0.5c0,0,2-1,0.9-3.4s-6.3-6.8-6.3-6.8s-7.3,4.2-5.3,8.8c0,0,0,0.1,0.1,0.1l-0.3,1.1c0,0-1.5,0.5-1.6,1.2l-0.8-1
		l-0.6,0.5l0.3,1l-0.5,0.8l-0.8-0.1l-0.9-0.4c0,0-0.3,0.7-0.3,0.7c0.1,0,0.9,0.6,0.9,0.6l-0.3,1l-0.9,0.5l0.3,0.9l-0.1,2.7l0.1,0.8
		c0,0-1.3,0.9-1,2.5c0.3,1.6,3.2,4.4,3.2,4.4l0.5,1.8l0.5,0.1l0.1,1.2h0.7c0,0-0.6,1.8-0.4,2.2c0,0-0.7,2.9-0.3,3.2
		c0,0-0.3,1.6,0.5,1.7c0,0,1.1-0.2,0.3,0.6c-0.8,0.8-0.4,2.9-0.4,2.9s0.9,4.5,1.9,6.8l1.3,2.3l0.4,2.7l0.6,0.2c0,0-0.5,2.3,0.3,2.7
		c0,0-0.1,25.6,1.4,31.8c0,0,1.8,6.4,1,9.7c0,0-1.6,0.9-1.8,2l-3.1,7.5c0,0-1.2,2.7-0.7,6.6l1,1c0,0,0,3,1.1,4c0,0-0.2,2.5,1.1,3.4
		c0,0-0.7,5.1,2.7,7.3l2.8,3.3c0,0,0.7,0.3,0.2,3.4c0,0-0.9,8.6,3,10.5c0,0,2.9,2.9,2.8,3.2c-0.1,0.3,1.1,3-0.7,6.4
		s-6.3,14.7-6.3,14.7s-2,7.1,0.5,9.1c0,0,1.9,2.4,5.6,2c0,0-2.2,4.8-2.6,5.7c-0.4,0.9-1,10.3,3.7,12.8c0,0-1.2,13.1-0.2,16.5
		l-0.7,8.2l-2,7.3c0,0-1.3,2.9,0.1,5.3l-1.7,7.4l-1.3,8.9c0,0-0.8,8,0.2,11.9c1,3.9,2.6,10.2,2.6,10.2l0.3,2.1h-9.7l-4.4,2l-0.5,5.8
		l0.6,1.4l-4.6,1.4l-0.3,1.7l0.7,0.6l-0.2,2.9l0.7,0.3c0,0,0.4,3.3,0.2,3.8c-0.2,0.5,0.7,0.9,0.7,0.9v2.3l0.2,1l-2.9,1.6l0.2,2.6
		l-5,0.4l-0.1-1.9c0,0-2.9-2.6-5,0.5v10.9l6.3,31.1l-1.4,26l-2.2,0.9c0,0-1,2.6-0.5,2.6s-0.2,2.7-0.2,2.7s0,2.4,0.8,4.3l1,4.1
		l0.7,2.5l-1.2,5l-3.1,0.3l-0.1,5.1l-1.8-0.1l-0.2,4l-1.7,0.4l0.1,2.2l-8.3,4.2l0.4,9.2L134.3,793.5z"/>
	<path class="st114" d="M68.8,417.7h3.4v1.8c0,0-0.4,2.3,0.5,2.8v5.3l-0.6,1.1l-1.1-2.5l-0.9-1.7l0.1-2.7l-0.9-2.7L68.8,417.7z"/>
	<path class="st114" d="M64.3,404.8l9,6.5c0,0-1.2,2.4-0.8,2.7l-5.2,0.3c0,0-0.2-1.3-1.3-1.3c-1.1,0-1.8-0.1-1.8-0.1V404.8z"/>
</g>
<g id="empre_state">
	<polygon points="-58.3,793.3 177.5,793.3 177.5,748.5 166,721.1 144.9,721.1 141.9,643.9 124.9,643.9 124.2,628.7 122.3,628.7 
		122.3,590.2 109.2,590.2 109.2,338.5 106.2,338.5 106.2,279.8 100.4,279.8 100.4,252.5 96.8,252.5 96.8,236.3 88.9,236.3 
		88.9,225.4 72.8,206.7 72.8,158.5 68.7,158.5 68.7,144.8 65.5,144.8 65.5,136.9 63.6,136.9 59.6,33 54.4,136.8 52.4,136.8 
		52.4,144.8 48.4,144.8 48.4,158.1 44.9,158.1 45.2,207 31.5,224.2 30.8,236.1 22.4,236.1 22.4,250.6 19.2,250.6 19.2,277.6 
		13.2,277.6 13.2,591.4 -2.6,591.4 -2.6,631.8 -5.9,631.8 -5.9,646.1 -21.1,646.1 -21.1,721.1 -47.7,721.1 -57.1,750.8 -57.1,782.6 
		-60.9,782.6 -60.9,793.3 	"/>
	<rect x="36.3" y="240" class="st113" width="6.2" height="12.6"/>
	<rect x="76.3" y="240" class="st113" width="6.2" height="12.6"/>
	<rect x="36.3" y="255.7" class="st113" width="6.2" height="12.6"/>
	<rect x="46.3" y="255.7" class="st113" width="6.2" height="12.6"/>
	<rect x="56.3" y="255.7" class="st113" width="6.2" height="12.6"/>
	<rect x="66.3" y="255.7" class="st113" width="6.2" height="12.6"/>
	<rect x="76.3" y="255.7" class="st113" width="6.2" height="12.6"/>
	<rect x="26.3" y="271.4" class="st113" width="6.2" height="12.6"/>
	<rect x="36.3" y="271.4" class="st113" width="6.2" height="12.6"/>
	<rect x="46.3" y="271.4" class="st113" width="6.2" height="12.6"/>
	<rect x="56.3" y="271.4" class="st113" width="6.2" height="12.6"/>
	<rect x="66.3" y="271.4" class="st113" width="6.2" height="12.6"/>
	<rect x="76.3" y="271.4" class="st113" width="6.2" height="12.6"/>
	<rect x="86.3" y="271.4" class="st113" width="6.2" height="12.6"/>
	<rect x="26.3" y="287.2" class="st113" width="6.2" height="12.6"/>
	<rect x="36.3" y="287.2" class="st113" width="6.2" height="12.6"/>
	<rect x="46.3" y="287.2" class="st113" width="6.2" height="12.6"/>
	<rect x="56.3" y="287.2" class="st113" width="6.2" height="12.6"/>
	<rect x="66.3" y="287.2" class="st113" width="6.2" height="12.6"/>
	<rect x="76.3" y="287.2" class="st113" width="6.2" height="12.6"/>
	<rect x="86.3" y="287.2" class="st113" width="6.2" height="12.6"/>
	<rect x="26.3" y="302.9" class="st113" width="6.2" height="12.6"/>
	<rect x="36.3" y="302.9" class="st113" width="6.2" height="12.6"/>
	<rect x="46.3" y="302.9" class="st113" width="6.2" height="12.6"/>
	<rect x="56.3" y="302.9" class="st113" width="6.2" height="12.6"/>
	<rect x="66.3" y="302.9" class="st113" width="6.2" height="12.6"/>
	<rect x="76.3" y="302.9" class="st113" width="6.2" height="12.6"/>
	<rect x="86.3" y="302.9" class="st113" width="6.2" height="12.6"/>
	<rect x="26.3" y="318.6" class="st113" width="6.2" height="12.6"/>
	<rect x="36.3" y="318.6" class="st113" width="6.2" height="12.6"/>
	<rect x="46.3" y="318.6" class="st113" width="6.2" height="12.6"/>
	<rect x="56.3" y="318.6" class="st113" width="6.2" height="12.6"/>
	<rect x="66.3" y="318.6" class="st113" width="6.2" height="12.6"/>
	<rect x="76.3" y="318.6" class="st113" width="6.2" height="12.6"/>
	<rect x="86.3" y="318.6" class="st113" width="6.2" height="12.6"/>
	<rect x="26.3" y="334.3" class="st113" width="6.2" height="12.6"/>
	<rect x="36.3" y="334.3" class="st113" width="6.2" height="12.6"/>
	<rect x="46.3" y="334.3" class="st113" width="6.2" height="12.6"/>
	<rect x="56.3" y="334.3" class="st113" width="6.2" height="12.6"/>
	<rect x="66.3" y="334.3" class="st113" width="6.2" height="12.6"/>
	<rect x="76.3" y="334.3" class="st113" width="6.2" height="12.6"/>
	<rect x="86.3" y="334.3" class="st113" width="6.2" height="12.6"/>
	<rect x="26.3" y="350.1" class="st113" width="6.2" height="12.6"/>
	<rect x="36.3" y="350.1" class="st113" width="6.2" height="12.6"/>
	<rect x="46.3" y="350.1" class="st113" width="6.2" height="12.6"/>
	<rect x="56.3" y="350.1" class="st113" width="6.2" height="12.6"/>
	<rect x="66.3" y="350.1" class="st113" width="6.2" height="12.6"/>
	<rect x="76.3" y="350.1" class="st113" width="6.2" height="12.6"/>
	<rect x="86.3" y="350.1" class="st113" width="6.2" height="12.6"/>
	<rect x="26.3" y="365.8" class="st113" width="6.2" height="12.6"/>
	<rect x="36.3" y="365.8" class="st113" width="6.2" height="12.6"/>
	<rect x="46.3" y="365.8" class="st113" width="6.2" height="12.6"/>
	<rect x="56.3" y="365.8" class="st113" width="6.2" height="12.6"/>
	<rect x="66.3" y="365.8" class="st113" width="6.2" height="12.6"/>
	<rect x="76.3" y="365.8" class="st113" width="6.2" height="12.6"/>
	<rect x="86.3" y="365.8" class="st113" width="6.2" height="12.6"/>
	<rect x="26.3" y="381.5" class="st113" width="6.2" height="12.6"/>
	<rect x="36.3" y="381.5" class="st113" width="6.2" height="12.6"/>
	<rect x="46.3" y="381.5" class="st113" width="6.2" height="12.6"/>
	<rect x="56.3" y="381.5" class="st113" width="6.2" height="12.6"/>
	<rect x="66.3" y="381.5" class="st113" width="6.2" height="12.6"/>
	<rect x="76.3" y="381.5" class="st113" width="6.2" height="12.6"/>
	<rect x="86.3" y="381.5" class="st113" width="6.2" height="12.6"/>
	<rect x="26.3" y="397.2" class="st113" width="6.2" height="12.6"/>
	<rect x="36.3" y="397.2" class="st113" width="6.2" height="12.6"/>
	<rect x="46.3" y="397.2" class="st113" width="6.2" height="12.6"/>
	<rect x="56.3" y="397.2" class="st113" width="6.2" height="12.6"/>
	<rect x="66.3" y="397.2" class="st113" width="6.2" height="12.6"/>
	<rect x="76.3" y="397.2" class="st113" width="6.2" height="12.6"/>
	<rect x="86.3" y="397.2" class="st113" width="6.2" height="12.6"/>
	<rect x="26.3" y="413" class="st113" width="6.2" height="12.6"/>
	<rect x="36.3" y="413" class="st113" width="6.2" height="12.6"/>
	<rect x="46.3" y="413" class="st113" width="6.2" height="12.6"/>
	<rect x="56.3" y="413" class="st113" width="6.2" height="12.6"/>
	<rect x="66.3" y="413" class="st113" width="6.2" height="12.6"/>
	<rect x="76.3" y="413" class="st113" width="6.2" height="12.6"/>
	<rect x="86.3" y="413" class="st113" width="6.2" height="12.6"/>
	<rect x="26.3" y="428.7" class="st113" width="6.2" height="12.6"/>
	<rect x="36.3" y="428.7" class="st113" width="6.2" height="12.6"/>
	<rect x="46.3" y="428.7" class="st113" width="6.2" height="12.6"/>
	<rect x="56.3" y="428.7" class="st113" width="6.2" height="12.6"/>
	<rect x="66.3" y="428.7" class="st113" width="6.2" height="12.6"/>
	<rect x="76.3" y="428.7" class="st113" width="6.2" height="12.6"/>
	<rect x="86.3" y="428.7" class="st113" width="6.2" height="12.6"/>
	<rect x="26.3" y="444.4" class="st113" width="6.2" height="12.6"/>
	<rect x="36.3" y="444.4" class="st113" width="6.2" height="12.6"/>
	<rect x="46.3" y="444.4" class="st113" width="6.2" height="12.6"/>
	<rect x="56.3" y="444.4" class="st113" width="6.2" height="12.6"/>
	<rect x="66.3" y="444.4" class="st113" width="6.2" height="12.6"/>
	<rect x="76.3" y="444.4" class="st113" width="6.2" height="12.6"/>
	<rect x="86.3" y="444.4" class="st113" width="6.2" height="12.6"/>
	<rect x="26.3" y="460.1" class="st113" width="6.2" height="12.6"/>
	<rect x="36.3" y="460.1" class="st113" width="6.2" height="12.6"/>
	<rect x="46.3" y="460.1" class="st113" width="6.2" height="12.6"/>
	<rect x="56.3" y="460.1" class="st113" width="6.2" height="12.6"/>
	<rect x="66.3" y="460.1" class="st113" width="6.2" height="12.6"/>
	<rect x="76.3" y="460.1" class="st113" width="6.2" height="12.6"/>
	<rect x="86.3" y="460.1" class="st113" width="6.2" height="12.6"/>
	<rect x="26.3" y="475.8" class="st113" width="6.2" height="12.6"/>
	<rect x="36.3" y="475.8" class="st113" width="6.2" height="12.6"/>
	<rect x="46.3" y="475.8" class="st113" width="6.2" height="12.6"/>
	<rect x="56.3" y="475.8" class="st113" width="6.2" height="12.6"/>
	<rect x="66.3" y="475.8" class="st113" width="6.2" height="12.6"/>
	<rect x="76.3" y="475.8" class="st113" width="6.2" height="12.6"/>
	<rect x="86.3" y="475.8" class="st113" width="6.2" height="12.6"/>
	<rect x="26.3" y="491.6" class="st113" width="6.2" height="12.6"/>
	<rect x="36.3" y="491.6" class="st113" width="6.2" height="12.6"/>
	<rect x="46.3" y="491.6" class="st113" width="6.2" height="12.6"/>
	<rect x="56.3" y="491.6" class="st113" width="6.2" height="12.6"/>
	<rect x="66.3" y="491.6" class="st113" width="6.2" height="12.6"/>
	<rect x="76.3" y="491.6" class="st113" width="6.2" height="12.6"/>
	<rect x="86.3" y="491.6" class="st113" width="6.2" height="12.6"/>
	<rect x="26.3" y="507.3" class="st113" width="6.2" height="12.6"/>
	<rect x="36.3" y="507.3" class="st113" width="6.2" height="12.6"/>
	<rect x="46.3" y="507.3" class="st113" width="6.2" height="12.6"/>
	<rect x="56.3" y="507.3" class="st113" width="6.2" height="12.6"/>
	<rect x="66.3" y="507.3" class="st113" width="6.2" height="12.6"/>
	<rect x="76.3" y="507.3" class="st113" width="6.2" height="12.6"/>
	<rect x="86.3" y="507.3" class="st113" width="6.2" height="12.6"/>
	<rect x="26.3" y="523" class="st113" width="6.2" height="12.6"/>
	<rect x="36.3" y="523" class="st113" width="6.2" height="12.6"/>
	<rect x="46.3" y="523" class="st113" width="6.2" height="12.6"/>
	<rect x="56.3" y="523" class="st113" width="6.2" height="12.6"/>
	<rect x="66.3" y="523" class="st113" width="6.2" height="12.6"/>
	<rect x="76.3" y="523" class="st113" width="6.2" height="12.6"/>
	<rect x="86.3" y="523" class="st113" width="6.2" height="12.6"/>
	<rect x="26.3" y="538.7" class="st113" width="6.2" height="12.6"/>
	<rect x="36.3" y="538.7" class="st113" width="6.2" height="12.6"/>
	<rect x="46.3" y="538.7" class="st113" width="6.2" height="12.6"/>
	<rect x="56.3" y="538.7" class="st113" width="6.2" height="12.6"/>
	<rect x="66.3" y="538.7" class="st113" width="6.2" height="12.6"/>
	<rect x="76.3" y="538.7" class="st113" width="6.2" height="12.6"/>
	<rect x="86.3" y="538.7" class="st113" width="6.2" height="12.6"/>
	<rect x="26.3" y="554.5" class="st113" width="6.2" height="12.6"/>
	<rect x="36.3" y="554.5" class="st113" width="6.2" height="12.6"/>
	<rect x="46.3" y="554.5" class="st113" width="6.2" height="12.6"/>
	<rect x="66.3" y="554.5" class="st113" width="6.2" height="12.6"/>
	<rect x="76.3" y="554.5" class="st113" width="6.2" height="12.6"/>
	<rect x="86.3" y="554.5" class="st113" width="6.2" height="12.6"/>
	<rect x="26.3" y="570.2" class="st113" width="6.2" height="12.6"/>
	<rect x="36.3" y="570.2" class="st113" width="6.2" height="12.6"/>
	<rect x="76.3" y="570.2" class="st113" width="6.2" height="12.6"/>
	<rect x="86.3" y="570.2" class="st113" width="6.2" height="12.6"/>
	<rect x="26.3" y="585.9" class="st113" width="6.2" height="12.6"/>
	<rect x="86.3" y="585.9" class="st113" width="6.2" height="12.6"/>
</g>
</svg>
